<svg width="140" height="140" viewBox="0 0 140 140" fill="none" xmlns="http://www.w3.org/2000/svg">
<path d="M113.986 86.2539C113.128 86.2539 112.504 86.6699 112.218 87.8139L110.658 94.0019H107.824L106.342 87.3719C106.108 86.3579 105.302 86.1239 104.522 86.3059C103.664 86.4879 103.17 87.1379 103.404 88.0999L104.86 94.0019H102.754C102.234 94.0019 102 94.4179 102 94.9379C102 95.4319 102.234 95.8479 102.754 95.8479H105.302L107.2 103.466C107.46 104.636 108.24 105.052 108.968 105.052C109.696 105.052 110.476 104.636 110.762 103.492L112.686 95.8479H115.182L116.95 103.44C117.236 104.636 117.99 105.052 118.718 105.052C119.446 105.052 120.2 104.636 120.486 103.492L122.384 95.8479H124.906C125.426 95.8479 125.66 95.4319 125.66 94.9379C125.66 94.4179 125.426 94.0019 124.906 94.0019H122.826L124.308 88.0999C124.542 87.1379 124.048 86.4879 123.216 86.3059C122.462 86.1499 121.63 86.4359 121.422 87.3719L119.94 94.0019H117.21L115.754 87.8139C115.468 86.6699 114.792 86.2539 113.986 86.2539ZM108.24 95.8479H110.19L109.15 99.9559L108.24 95.8479ZM117.652 95.8479H119.524L118.614 99.9299L117.652 95.8479ZM113.986 90.7259L114.74 94.0019H113.154L113.986 90.7259Z" fill="black"/>
<path fill-rule="evenodd" clip-rule="evenodd" d="M21.5341 114.92H24.5261L32.0811 114.926C32.0965 114.926 32.1104 114.922 32.1243 114.918C32.1374 114.914 32.1506 114.91 32.1651 114.91H32.5241C32.9219 114.91 33.3034 114.752 33.5847 114.471C33.866 114.189 34.0241 113.807 34.0241 113.41C34.0241 113.012 33.866 112.63 33.5847 112.349C33.3034 112.068 32.9219 111.91 32.5241 111.91L24.5291 111.922H21.4981C21.026 111.915 20.5753 111.723 20.2426 111.388C19.9099 111.053 19.7217 110.601 19.7181 110.129L19.6831 85.2559C19.6842 84.7767 19.8752 84.3176 20.2143 83.979C20.5534 83.6405 21.0129 83.45 21.4921 83.4497L66.5141 83.3877C66.9928 83.3869 67.4523 83.5762 67.792 83.9136C68.1316 84.251 68.3237 84.7093 68.326 85.188C68.326 85.4117 68.3297 87.9133 68.3334 90.4779L68.3334 90.5006C68.3377 93.4993 68.3421 96.575 68.3411 96.188L68.3611 110.059C68.3603 110.538 68.1692 110.998 67.8298 111.336C67.4905 111.675 67.0305 111.865 66.5511 111.865L44.0581 111.895C43.6603 111.895 43.2787 112.053 42.9974 112.334C42.7161 112.615 42.5581 112.997 42.5581 113.395C42.5581 113.793 42.7161 114.174 42.9974 114.456C43.2787 114.737 43.6603 114.895 44.0581 114.895H45.7901C45.8675 114.918 45.9468 114.934 46.0271 114.943C135.684 115.014 134.997 115.014 126.665 115.006H126.654C120.372 115.001 109.774 114.992 130.199 115.007C130.597 115.007 130.978 114.849 131.26 114.567C131.541 114.286 131.699 113.905 131.699 113.507C131.699 113.109 131.541 112.728 131.26 112.446C130.978 112.165 130.597 112.007 130.199 112.007H124.39C128.755 109.281 131.917 104.995 133.234 100.021C134.551 95.0465 133.923 89.7574 131.478 85.2295C129.034 80.7015 124.956 77.2748 120.074 75.647C115.193 74.0192 109.874 74.3124 105.201 76.4668C101.795 67.9506 96.5141 60.2287 90.649 55.1381C91.771 54.3198 92.5 52.995 92.5 51.5C92.5 50.3475 92.0667 49.2961 91.3542 48.5C92.0667 47.7039 92.5 46.6525 92.5 45.5C92.5 43.2445 90.8407 41.3766 88.6762 41.0505C88.535 41.0105 88.3915 40.9772 88.2461 40.9507L91.9901 32.6279C92.3374 31.8619 92.4587 31.0123 92.3397 30.1797C92.2206 29.347 91.8661 28.5658 91.3181 27.9277C90.7665 27.2785 90.0419 26.7991 89.2287 26.5454C88.4155 26.2917 87.5469 26.2742 86.7241 26.4946C85.9656 26.6857 85.1851 26.7746 84.4031 26.7588C83.1534 26.7938 81.9129 26.5367 80.7801 26.0078C79.2523 25.3557 77.6083 25.0195 75.9471 25.0195C74.2859 25.0195 72.6419 25.3557 71.1141 26.0078C69.9818 26.5371 68.7414 26.7943 67.4921 26.7588C66.7102 26.7753 65.9297 26.6854 65.1721 26.4917C64.3476 26.2719 63.4778 26.2905 62.6635 26.5454C61.8493 26.8003 61.124 27.281 60.5721 27.9316C60.0245 28.57 59.6706 29.3514 59.5521 30.1841C59.4336 31.0167 59.5553 31.8661 59.9031 32.6318L63.6471 40.9526C63.6087 40.9762 63.5709 41 63.5335 41.0239C61.2674 41.2573 59.5 43.1722 59.5 45.5C59.5 46.5914 59.8886 47.5921 60.5349 48.3712C60.5269 48.4674 60.5186 48.5635 60.5097 48.6593C59.8785 49.434 59.5 50.4228 59.5 51.5C59.5 52.9701 60.2049 54.2755 61.2951 55.0967C54.4743 61.0076 48.3926 70.5891 45.2771 80.4258L21.4771 80.46C20.2004 80.46 18.976 80.9664 18.0723 81.8682C17.1687 82.7699 16.6598 83.9934 16.6571 85.27L16.6921 110.143C16.6945 110.755 16.8157 111.362 17.0491 111.929L7.49609 111.922C7.09827 111.922 6.71673 112.08 6.43542 112.361C6.15412 112.643 5.99609 113.024 5.99609 113.422C5.99609 113.82 6.15412 114.201 6.43542 114.482C6.71673 114.764 7.09827 114.922 7.49609 114.922L21.4581 114.932C21.4844 114.917 21.5031 114.918 21.5207 114.919H21.5209C21.5253 114.92 21.5297 114.92 21.5341 114.92ZM64 50C63.1716 50 62.5 50.6716 62.5 51.5C62.5 52.3284 63.1716 53 64 53H88C88.8284 53 89.5 52.3284 89.5 51.5C89.5 50.6716 88.8284 50 88 50H64ZM88 47C88.8284 47 89.5 46.3284 89.5 45.5C89.5 44.6716 88.8284 44 88 44H64C63.1716 44 62.5 44.6716 62.5 45.5C62.5 46.3284 63.1716 47 64 47H88ZM66.5141 80.3779H66.5061L61.9391 80.3838C62.2339 77.4702 63.4286 74.7208 65.3573 72.5171C67.286 70.3134 69.8531 68.7647 72.702 68.0864C75.5508 67.4082 78.5402 67.6342 81.255 68.7324C83.9698 69.8306 86.2753 71.7466 87.8513 74.2148C89.4274 76.6831 90.1958 79.581 90.0499 82.5059C89.904 85.4307 88.8511 88.2375 87.0372 90.5366C85.2233 92.8358 82.7385 94.5129 79.9279 95.3354C77.1173 96.158 74.1203 96.0853 71.3531 95.127L71.3451 89.9507V87.6938V85.1729C71.338 83.8972 70.8255 82.6764 69.92 81.7778C69.0145 80.8793 67.7898 80.3753 66.5141 80.3779ZM94.0911 111.969C95.9504 111.244 97.7298 110.329 99.4011 109.238C100.467 110.275 101.643 111.193 102.907 111.977L94.0911 111.969ZM130.984 94.8333C130.97 99.1237 129.36 103.255 126.469 106.425C123.578 109.595 119.611 111.577 115.34 111.985H111.932C108.618 111.635 105.477 110.331 102.888 108.233C100.3 106.135 98.3745 103.331 97.3459 100.162C96.3173 96.992 96.2294 93.5925 97.0927 90.374C97.956 87.1555 99.7336 84.2562 102.21 82.0269C104.687 79.7975 107.757 78.3336 111.048 77.8125C114.339 77.2914 117.711 77.7351 120.755 79.0903C123.8 80.4455 126.386 82.6538 128.201 85.4482C130.016 88.2419 130.983 91.5019 130.984 94.8333ZM62.8791 29.8496C63.0605 29.6343 63.2992 29.4749 63.5674 29.3896C63.8357 29.3044 64.1227 29.2967 64.3951 29.3677C65.4067 29.6316 66.4497 29.7559 67.4951 29.7368C69.1429 29.7747 70.7779 29.4397 72.2781 28.7568C73.4383 28.2563 74.6885 27.998 75.9521 27.998C77.2157 27.998 78.4659 28.2563 79.6261 28.7568C81.1255 29.4399 82.7599 29.7749 84.4071 29.7368C85.4499 29.7541 86.4904 29.6326 87.5011 29.375C87.7734 29.2997 88.0617 29.3038 88.3315 29.3877C88.6014 29.4716 88.8414 29.6312 89.0231 29.8477C89.2053 30.0557 89.3228 30.3125 89.3614 30.5864C89.3999 30.8603 89.3578 31.1394 89.2401 31.3896L84.9831 40.853H66.9181L62.6631 31.3926C62.5439 31.1425 62.5008 30.8632 62.5392 30.5889C62.5776 30.3145 62.6958 30.0573 62.8791 29.8496ZM64.6261 56.2236H78.3211C78.2453 56.6353 78.138 57.0409 78.0001 57.436C77.7276 58.0761 77.2631 58.6154 76.6707 58.98C76.0782 59.3445 75.3872 59.5159 74.6931 59.4707C74.4941 59.446 74.2923 59.4615 74.0994 59.5161C73.9065 59.5707 73.7265 59.6632 73.5701 59.7886C73.4136 59.9139 73.2839 60.0693 73.1885 60.2456C73.0932 60.4219 73.0341 60.6159 73.0149 60.8154C72.9956 61.015 73.0166 61.2164 73.0765 61.4077C73.1364 61.599 73.234 61.7763 73.3636 61.9292C73.4932 62.0821 73.6521 62.2074 73.831 62.2979C74.0099 62.3883 74.2051 62.4418 74.4051 62.4556C75.5201 62.5471 76.6394 62.3421 77.6494 61.8608C78.6593 61.3796 79.5238 60.6394 80.1551 59.7158C80.5134 60.1983 80.8631 60.593 81.1983 60.9714C81.4244 61.2267 81.644 61.4745 81.8551 61.7368C82.7206 62.6534 83.38 63.7446 83.7891 64.937C83.9495 65.3024 84.2479 65.5895 84.6192 65.7358C84.9905 65.8821 85.4045 65.8755 85.7711 65.7178C85.952 65.6399 86.1159 65.5274 86.2533 65.3862C86.3907 65.245 86.4989 65.078 86.5718 64.895C86.6447 64.712 86.6809 64.5163 86.6782 64.3193C86.6755 64.1223 86.634 63.9275 86.5561 63.7466C86.0991 62.44 85.3931 61.2346 84.4771 60.1968C84.3942 60.0973 84.3367 60.025 84.2792 59.9527C84.1361 59.7727 83.9933 59.593 83.4611 58.9966C82.9123 58.448 82.4522 57.8178 82.0971 57.1279C81.9763 56.8405 81.8961 56.5376 81.8591 56.228H87.2731C93.3281 60.935 99.0731 69.117 102.536 77.915C100.209 79.4146 98.2163 81.3787 96.6839 83.6846C95.1515 85.9905 94.1122 88.5879 93.6312 91.3145C93.1501 94.041 93.2377 96.8377 93.8885 99.5288C94.5394 102.22 95.7393 104.747 97.4131 106.953C92.9711 109.785 86.8001 111.528 79.5821 111.959L72.3291 111.953C72.0236 111.935 71.7253 111.908 71.4265 111.882L71.4258 111.882C71.2915 111.87 71.1572 111.858 71.0221 111.847C71.254 111.275 71.3728 110.664 71.3721 110.047L71.3551 98.2646C74.726 99.1913 78.3005 99.0571 81.5923 97.8799C84.884 96.7026 87.7332 94.5397 89.752 91.6855C91.7707 88.8314 92.8611 85.4246 92.8748 81.9287C92.8884 78.4328 91.8246 75.0173 89.8281 72.1475C87.8317 69.2777 84.9995 67.093 81.717 65.8901C78.4346 64.6872 74.8612 64.5245 71.4832 65.4248C68.1051 66.3251 65.0865 68.2444 62.838 70.9214C60.5896 73.5983 59.2205 76.903 58.9171 80.3857L48.4431 80.4009C51.6951 70.7379 57.8821 61.462 64.6261 56.228V56.2236Z" fill="#1A1818"/>
</svg>
