<svg width="62" height="62" viewBox="0 0 62 62" fill="none" xmlns="http://www.w3.org/2000/svg">
<rect width="62" height="62" rx="6.32653" fill="#F4F7FA"/>
<circle cx="26.5672" cy="24.6727" r="4.42857" fill="#407DF1"/>
<path d="M32.3311 41.1216C34.3893 41.1216 36.123 39.3915 35.3353 37.49C34.8584 36.3387 34.1594 35.2925 33.2782 34.4113C32.397 33.5301 31.3509 32.8311 30.1995 32.3542C29.0482 31.8773 27.8141 31.6318 26.5679 31.6318C25.3217 31.6318 24.0877 31.8773 22.9363 32.3542C21.785 32.8311 20.7388 33.5301 19.8576 34.4113C18.9764 35.2925 18.2774 36.3387 17.8005 37.49C17.0129 39.3915 18.7466 41.1216 20.8047 41.1216L26.5679 41.1216H32.3311Z" fill="#1D57C7"/>
<rect x="30.3633" y="26.5723" width="14.551" height="9.4898" rx="2.53061" fill="#95E5FF"/>
<circle cx="34.1579" cy="31.6335" r="1.26531" fill="white"/>
<circle cx="37.9548" cy="31.6335" r="1.26531" fill="white"/>
<circle cx="41.7497" cy="31.6335" r="1.26531" fill="white"/>
<path d="M30.3633 36.8007V33.4244C30.3633 32.9239 30.917 32.6216 31.338 32.8923L33.964 34.5804C34.3514 34.8294 34.3514 35.3957 33.964 35.6447L31.338 37.3329C30.917 37.6035 30.3633 37.3012 30.3633 36.8007Z" fill="#95E5FF"/>
</svg>
