<svg xmlns="http://www.w3.org/2000/svg" width="24" height="24" viewBox="0 0 24 24">
  <g id="ico_24_cart" transform="translate(-108 -188)">
    <path id="base" d="M0,0H24V24H0Z" transform="translate(108 188)" fill="none" opacity="0"/>
    <path id="path" d="M2,4A2,2,0,1,0,0,2,2,2,0,0,0,2,4Z" transform="translate(114 205)" fill="none" stroke="#1f1f1f" stroke-width="1.5"/>
    <path id="path-2" data-name="path" d="M2,4A2,2,0,1,0,0,2,2,2,0,0,0,2,4Z" transform="translate(124 205)" fill="none" stroke="#1f1f1f" stroke-width="1.5"/>
    <g id="path-3" data-name="path" transform="translate(110.953 191)" fill="none" stroke-linecap="round">
      <path d="M3.047,3,5.16,10.814A1.5,1.5,0,0,0,6.63,12h6.082a4.507,4.507,0,0,0,4.422-3.617l.9-4.485A.75.75,0,0,0,17.3,3H3.047Z" stroke="none"/>
      <path d="M 5.006792068481445 4.499966621398926 L 6.60814380645752 10.42264652252197 L 6.621593475341797 10.46130657196045 L 6.629863739013672 10.49984645843506 L 12.71183395385742 10.49984645843506 C 14.14162445068359 10.49984645843506 15.38269424438477 9.485376358032227 15.66281318664551 8.087646484375 L 16.38185119628906 4.499966621398926 L 5.006792068481445 4.499966621398926 M 3.04736328125 2.999966621398926 L 17.29555320739746 2.999966621398926 C 17.76982307434082 2.999966621398926 18.12552452087402 3.43294620513916 18.03251457214355 3.897036552429199 L 17.13356399536133 8.382416725158691 C 16.7120246887207 10.48579597473145 14.8613338470459 11.99984645843506 12.71183395385742 11.99984645843506 L 6.629863739013672 11.99984645843506 C 5.921093940734863 11.99984645843506 5.30864429473877 11.50575637817383 5.160133361816406 10.8141565322876 L 3.04736328125 2.999966621398926 Z" stroke="none" fill="#1f1f1f"/>
    </g>
    <path id="path-4" data-name="path" d="M0,.533H2.4L3.884,5.158" transform="translate(111.1 189.467)" fill="none" stroke="#1f1f1f" stroke-linecap="round" stroke-linejoin="round" stroke-width="1.5"/>
  </g>
</svg>
