<svg width="56" height="56" viewBox="0 0 56 56" fill="none" xmlns="http://www.w3.org/2000/svg">
<path d="M25.0649 20.7062C25.0649 24.8558 21.6686 28.2297 17.4914 28.2297C13.3143 28.2297 9.91797 24.8687 9.91797 20.7062C9.91797 16.5437 13.3143 13.1826 17.4914 13.1826C21.6686 13.1826 25.0649 16.5437 25.0649 20.7062Z" fill="white"/>
<path fill-rule="evenodd" clip-rule="evenodd" d="M17.4914 14.1826C13.8592 14.1826 10.918 17.1033 10.918 20.7062C10.918 24.3091 13.8592 27.2297 17.4914 27.2297C21.1225 27.2297 24.0649 24.2973 24.0649 20.7062C24.0649 17.1033 21.1236 14.1826 17.4914 14.1826ZM8.91797 20.7062C8.91797 15.984 12.7694 12.1826 17.4914 12.1826C22.2135 12.1826 26.0649 15.984 26.0649 20.7062C26.0649 25.4143 22.2146 29.2297 17.4914 29.2297C12.7694 29.2297 8.91797 25.4283 8.91797 20.7062Z" fill="#1A1818"/>
<path d="M24.4451 33H10.5419C6.9263 33 4 35.7476 4 39.1425V50C4 50.5523 4.44772 51 5 51H30C30.5523 51 31 50.5523 31 50V39.1425C31 35.7476 28.0737 33 24.4581 33H24.4451Z" fill="white"/>
<path fill-rule="evenodd" clip-rule="evenodd" d="M3 39.1425C3 35.1369 6.4343 32 10.5419 32H24.4581C28.5657 32 32 35.1369 32 39.1425V50C32 51.1046 31.1046 52 30 52H5C3.89543 52 3 51.1046 3 50V39.1425ZM10.5419 34C7.4183 34 5 36.3583 5 39.1425V50L30 50V39.1425C30 36.3583 27.5817 34 24.4581 34H10.5419Z" fill="#1A1818"/>
<path d="M49.9902 4H32.0098C30.9005 4 30 4.9115 30 6.03447V18.533C30 19.656 30.9005 20.5675 32.0098 20.5675H36.2397C36.792 20.5675 37.2397 21.0152 37.2397 21.5675V23.6144C37.2397 24.5012 38.3084 24.9492 38.9408 24.3274L42.4731 20.8544C42.6601 20.6705 42.9119 20.5675 43.1742 20.5675H49.9902C51.0995 20.5675 52 19.656 52 18.533V6.03447C52 4.9115 51.0995 4 49.9902 4Z" fill="#E3EDFF"/>
<path fill-rule="evenodd" clip-rule="evenodd" d="M29 6.03447C29 4.37074 30.3367 3 32.0098 3H49.9902C51.6633 3 53 4.37074 53 6.03447V18.533C53 20.1967 51.6633 21.5675 49.9902 21.5675H43.1742L39.6419 25.0405C38.3772 26.284 36.2397 25.388 36.2397 23.6144L36.2397 21.5675H32.0098C30.3367 21.5675 29 20.1967 29 18.533V6.03447ZM32.0098 5C31.4642 5 31 5.45226 31 6.03447V18.533C31 19.1152 31.4642 19.5675 32.0098 19.5675H36.2397C37.3443 19.5675 38.2397 20.4629 38.2397 21.5675V23.6144L41.772 20.1413C42.146 19.7735 42.6496 19.5675 43.1742 19.5675H49.9902C50.5358 19.5675 51 19.1152 51 18.533V6.03447C51 5.45226 50.5358 5 49.9902 5H32.0098Z" fill="#1A1818"/>
<path fill-rule="evenodd" clip-rule="evenodd" d="M34.6172 9.44629C34.6172 8.894 35.0649 8.44629 35.6172 8.44629H46.3034C46.8557 8.44629 47.3034 8.894 47.3034 9.44629C47.3034 9.99857 46.8557 10.4463 46.3034 10.4463H35.6172C35.0649 10.4463 34.6172 9.99857 34.6172 9.44629Z" fill="#1A1818"/>
<path fill-rule="evenodd" clip-rule="evenodd" d="M34.6172 14.7607C34.6172 14.2085 35.0649 13.7607 35.6172 13.7607H46.3034C46.8557 13.7607 47.3034 14.2085 47.3034 14.7607C47.3034 15.313 46.8557 15.7607 46.3034 15.7607H35.6172C35.0649 15.7607 34.6172 15.313 34.6172 14.7607Z" fill="#1A1818"/>
</svg>
