<svg xmlns="http://www.w3.org/2000/svg" width="24" height="24" viewBox="0 0 24 24">
  <g id="ico_24_airpods" transform="translate(-684 -252)">
    <path id="base" d="M0,0H24V24H0Z" transform="translate(684 252)" fill="none" opacity="0"/>
    <path id="path" d="M4.72,7.56H3.78A3.78,3.78,0,1,1,3.78,0H5.67A2.84,2.84,0,0,1,8.5,2.83V15.1a1.89,1.89,0,1,1-3.78,0Z" transform="translate(686 254)" fill="none" stroke="#1f1f1f" stroke-linecap="round" stroke-linejoin="round" stroke-width="1.5"/>
    <path id="path-2" data-name="path" d="M3.78,7.56h.94A3.78,3.78,0,1,0,4.72,0H2.83A2.84,2.84,0,0,0,0,2.83V15.1a1.89,1.89,0,1,0,3.78,0Z" transform="translate(697.5 254)" fill="none" stroke="#1f1f1f" stroke-linecap="round" stroke-linejoin="round" stroke-width="1.5"/>
    <path id="path-3" data-name="path" d="M0,3V0" transform="translate(692.5 271)" fill="none" stroke="#1f1f1f" stroke-linecap="round" stroke-linejoin="round" stroke-width="1.5"/>
    <path id="path-4" data-name="path" d="M0,3V0" transform="translate(699.5 271)" fill="none" stroke="#1f1f1f" stroke-linecap="round" stroke-linejoin="round" stroke-width="1.5"/>
  </g>
</svg>
