<svg width="62" height="62" viewBox="0 0 62 62" fill="none" xmlns="http://www.w3.org/2000/svg">
<rect width="62" height="62" rx="6.32653" fill="#F4F7FA"/>
<path d="M43.0156 40.7423C43.0156 42.699 41.2689 44.2852 39.1143 44.2852H29.3609V38.9709C29.3609 37.0142 27.6142 35.428 25.4595 35.428H19.6075V21.2566C19.6075 19.2999 21.3542 17.7137 23.5088 17.7137H39.1143C41.2689 17.7137 43.0156 19.2999 43.0156 21.2566V40.7423Z" fill="#407DF1"/>
<path d="M29.3609 38.9709V44.2852L19.6075 35.428H25.4595C27.6142 35.428 29.3609 37.0142 29.3609 38.9709Z" fill="#1D57C7"/>
<circle cx="31.3119" cy="25.6215" r="2.21429" fill="white"/>
<path d="M34.1929 33.8465C35.222 33.8465 36.0888 32.9814 35.695 32.0307C35.4566 31.455 35.1071 30.9319 34.6665 30.4913C34.2258 30.0507 33.7028 29.7012 33.1271 29.4627C32.5514 29.2243 31.9344 29.1016 31.3113 29.1016C30.6882 29.1016 30.0712 29.2243 29.4955 29.4627C28.9198 29.7012 28.3968 30.0507 27.9562 30.4913C27.5155 30.9319 27.166 31.455 26.9276 32.0307C26.5338 32.9814 27.4006 33.8465 28.4297 33.8465L31.3113 33.8465H34.1929Z" fill="#95E5FF"/>
</svg>
