<svg xmlns="http://www.w3.org/2000/svg" width="140" height="140" viewBox="0 0 140 140">
    <path style="fill:none" d="M0 0h140v140H0z"/>
    <g transform="translate(-1630.073 -8154.766)">
        <path d="m1721.919 8228.037-17.015-.013a1.493 1.493 0 0 0 0 2.986l17.015.014a1.494 1.494 0 0 0 0-2.987z" transform="translate(39.663 37.741)" style="fill:#1a1818"/>
        <circle cx="3" cy="3" r="3" transform="translate(1681.073 8257.765)" style="fill:#1a1818"/>
        <path data-name="path" d="M1730.07 8241.887a15.99 15.99 0 0 0-18.075-16.22v-51.312a6.6 6.6 0 0 0-6.6-6.59h-52.65a6.6 6.6 0 0 0-6.594 6.59v80.454l-12.635-.008a1.445 1.445 0 1 0 0 2.891l94.643.073a1.446 1.446 0 0 0 0-2.893h-5.113a16.463 16.463 0 0 0 2.108-1.7 15.969 15.969 0 0 0 4.916-11.285zm-81.021-67.531a3.7 3.7 0 0 1 3.7-3.7h52.65a3.7 3.7 0 0 1 3.7 3.7v51.944a16.023 16.023 0 0 0-4.34 2.166v-46.331a1.446 1.446 0 0 0-1.447-1.446h-48.478a1.445 1.445 0 0 0-1.447 1.446v61.179a1.445 1.445 0 0 0 1.447 1.445h43.386a16.027 16.027 0 0 0 6.569 10.034h-55.743zm48.875 67.511h-41.64v-58.287h45.585v47.485a16 16 0 0 0-3.962 10.259c-.007.176.014.36.017.542zm15.832 12.917a13.181 13.181 0 1 1 13.421-12.948 13.2 13.2 0 0 1-13.421 12.947z" transform="translate(5 11)" style="fill:#1a1818"/>
        <path data-name="path" d="m1697.347 8215.391-8.39 8.512-3.278-3.331a1.261 1.261 0 0 0-1.8 0 1.3 1.3 0 0 0 0 1.813l4.19 4.244a1.227 1.227 0 0 0 1.784 0l9.277-9.426a1.271 1.271 0 0 0 0-1.812 1.245 1.245 0 0 0-1.783 0z" transform="translate(28.561 31.751)" style="fill:#1a1818"/>
        <path data-name="path" d="M1664.642 8175.188h9.777a1.5 1.5 0 1 0 0-3h-9.777a1.5 1.5 0 1 0 0 3z" transform="translate(19.042 12.577)" style="fill:#1a1818"/>
        <path data-name="path" d="M1659.59 8175.188h2.25a1.537 1.537 0 1 0 0-3h-2.25a1.538 1.538 0 1 0 0 3z" transform="translate(16.359 12.577)" style="fill:#1a1818"/>
        <g transform="translate(0 6)">
            <path d="M1496.582 2807.69H1489a2.714 2.714 0 0 0-2.709 2.7v7.595a2.714 2.714 0 0 0 2.709 2.7h7.583a2.714 2.714 0 0 0 2.708-2.7v-7.595a2.713 2.713 0 0 0-2.709-2.7z" transform="translate(180.783 5405.075)" style="fill:#1a1818"/>
            <rect width="18" height="3" rx="1.5" transform="translate(1682.073 8217.766)" style="fill:#1a1818"/>
            <path data-name="check" d="M1490.46 2815.384a.765.765 0 0 0 .568.264h.009a.77.77 0 0 0 .569-.254l3.068-3.25a.92.92 0 0 0 .007-1.24.775.775 0 0 0-1.143-.008l-2.492 2.648-.738-.813a.775.775 0 0 0-1.145-.009.92.92 0 0 0-.008 1.24z" transform="translate(182.156 5406.118)" style="fill:#fff"/>
            <path data-name="box" d="M1496.582 2807.69H1489a2.714 2.714 0 0 0-2.709 2.7v7.595a2.714 2.714 0 0 0 2.709 2.7h7.583a2.714 2.714 0 0 0 2.708-2.7v-7.595a2.713 2.713 0 0 0-2.709-2.7z" transform="translate(180.783 5389.075)" style="fill:#1a1818"/>
            <rect data-name="line" width="10" height="3" rx="1.5" transform="translate(1682.073 8201.766)" style="fill:#1a1818"/>
            <path data-name="check" d="M1490.46 2815.384a.765.765 0 0 0 .568.264h.009a.77.77 0 0 0 .569-.254l3.068-3.25a.92.92 0 0 0 .007-1.24.775.775 0 0 0-1.143-.008l-2.492 2.648-.738-.813a.775.775 0 0 0-1.145-.009.92.92 0 0 0-.008 1.24z" transform="translate(182.156 5390.118)" style="fill:#fff"/>
        </g>
    </g>
</svg>
