<svg width="62" height="62" viewBox="0 0 62 62" fill="none" xmlns="http://www.w3.org/2000/svg">
<rect width="62" height="62" rx="6.32653" fill="#F4F7FA"/>
<rect x="19.6074" y="17.7139" width="23.4082" height="26.5714" rx="3.79592" fill="#407DF1"/>
<path d="M24.6699 25.9383C24.6699 25.5889 24.9532 25.3057 25.3026 25.3057H31.6291C31.9785 25.3057 32.2618 25.5889 32.2618 25.9383V27.2036C32.2618 27.553 31.9785 27.8363 31.6291 27.8363H25.3026C24.9532 27.8363 24.6699 27.553 24.6699 27.2036V25.9383Z" fill="white"/>
<path d="M29.0978 22.7754C29.4472 22.7754 29.7305 23.0594 29.7305 23.4088C29.7305 25.7867 29.7305 27.3559 29.7305 29.7338C29.7305 30.0832 29.4472 30.3672 29.0978 30.3672L27.8325 30.3672C27.4831 30.3672 27.1999 30.084 27.1999 29.7346L27.1999 23.408C27.1999 23.0586 27.4831 22.7754 27.8325 22.7754L29.0978 22.7754Z" fill="#95E5FF"/>
<rect x="24.6699" y="33.5303" width="13.2857" height="1.89796" rx="0.632653" fill="#1D57C7"/>
<rect x="24.6699" y="36.6934" width="9.4898" height="1.89796" rx="0.632653" fill="#1D57C7"/>
</svg>
