<svg xmlns="http://www.w3.org/2000/svg" width="24" height="24" viewBox="0 0 24 24">
  <g id="ico_24_mike_slash" transform="translate(-300 -188)">
    <path id="base" d="M0,0H24V24H0Z" transform="translate(300 188)" fill="none" opacity="0"/>
    <path id="path" d="M8,4.3V4A4,4,0,0,0,0,4V9" transform="translate(308 190)" fill="none" stroke="#1f1f1f" stroke-linecap="round" stroke-linejoin="round" stroke-width="1.5"/>
    <path id="path-2" data-name="path" d="M0,3.19A3.973,3.973,0,0,0,2.96,4.5a4,4,0,0,0,4-4V0" transform="translate(309.04 199)" fill="none" stroke="#1f1f1f" stroke-linecap="round" stroke-linejoin="round" stroke-width="1.5"/>
    <path id="path-3" data-name="path" d="M0,7.3A7.656,7.656,0,0,0,12.87,1.7V0" transform="translate(306.78 197.65)" fill="none" stroke="#1f1f1f" stroke-linecap="round" stroke-linejoin="round" stroke-width="1.5"/>
    <path id="path-4" data-name="path" d="M0,0V1.7A7.588,7.588,0,0,0,.6,4.68" transform="translate(304.35 197.65)" fill="none" stroke="#1f1f1f" stroke-linecap="round" stroke-linejoin="round" stroke-width="1.5"/>
    <path id="path-5" data-name="path" d="M16.14,0,0,16.15" transform="translate(303.93 190.84)" fill="none" stroke="#1f1f1f" stroke-linecap="round" stroke-linejoin="round" stroke-width="1.5"/>
    <path id="path-6" data-name="path" d="M0,0V3" transform="translate(312 207)" fill="none" stroke="#1f1f1f" stroke-linecap="round" stroke-linejoin="round" stroke-width="1.5"/>
  </g>
</svg>
