<svg width="140" height="140" viewBox="0 0 140 140" fill="none" xmlns="http://www.w3.org/2000/svg">
    <path fill-rule="evenodd" clip-rule="evenodd" d="M24 59H40C42.2091 59 44 60.7909 44 63V81C44 83.2091 42.2091 85 40 85H24C21.7909 85 20 83.2091 20 81V63C20 60.7909 21.7909 59 24 59ZM36 67C36 69.2091 34.2091 71 32 71C29.7909 71 28 69.2091 28 67C28 64.7909 29.7909 63 32 63C34.2091 63 36 64.7909 36 67ZM36.9497 75.0503C35.637 73.7375 33.8565 73 32 73C30.1435 73 28.363 73.7375 27.0503 75.0503C25.7375 76.363 25 78.1435 25 80V81H39V80C39 78.1435 38.2625 76.363 36.9497 75.0503Z" fill="#1A1818"/>
    <path d="M94.5 61H51.5C50.6716 61 50 61.6716 50 62.5C50 63.3284 50.6716 64 51.5 64H94.5C95.3284 64 96 63.3284 96 62.5C96 61.6716 95.3284 61 94.5 61Z" fill="#1A1818"/>
    <path d="M86.5 68H51.5C50.6716 68 50 68.6716 50 69.5C50 70.3284 50.6716 71 51.5 71H86.5C87.3284 71 88 70.3284 88 69.5C88 68.6716 87.3284 68 86.5 68Z" fill="#1A1818"/>
    <path d="M78.5 75H51.5C50.6716 75 50 75.6716 50 76.5C50 77.3284 50.6716 78 51.5 78H78.5C79.3284 78 80 77.3284 80 76.5C80 75.6716 79.3284 75 78.5 75Z" fill="#1A1818"/>
    <path d="M23.998 43C24.987 43 25.9538 42.7066 26.776 42.1572C27.5982 41.6078 28.2391 40.8272 28.6176 39.9135C28.996 38.9999 29.0949 37.9943 28.902 37.0244C28.7091 36.0545 28.233 35.1636 27.5337 34.4643C26.8344 33.7651 25.9434 33.2891 24.9735 33.0962C24.0036 32.9032 22.9983 33.0019 22.0847 33.3803C21.1711 33.7588 20.3901 34.3999 19.8407 35.2221C19.2913 36.0444 18.998 37.0111 18.998 38C18.998 39.3261 19.5248 40.5979 20.4625 41.5356C21.4002 42.4733 22.672 43 23.998 43ZM23.998 35.7192C24.4493 35.7186 24.8906 35.8518 25.2661 36.102C25.6416 36.3523 25.9344 36.7083 26.1075 37.125C26.2807 37.5417 26.3264 38.0002 26.2388 38.4428C26.1512 38.8855 25.9343 39.292 25.6155 39.6113C25.2967 39.9306 24.8904 40.1484 24.4479 40.2368C24.0054 40.3252 23.5466 40.2803 23.1296 40.1079C22.7126 39.9355 22.3561 39.6431 22.1052 39.268C21.8543 38.893 21.7203 38.4522 21.7201 38.001C21.7206 37.3966 21.9607 36.8169 22.3877 36.3891C22.8147 35.9614 23.3937 35.7208 23.998 35.7192V35.7192Z" fill="#1A1818"/>
    <path d="M36.998 43C37.987 43 38.9538 42.7066 39.776 42.1572C40.5982 41.6078 41.2391 40.8272 41.6176 39.9135C41.996 38.9999 42.0949 37.9943 41.902 37.0244C41.7091 36.0545 41.233 35.1636 40.5337 34.4643C39.8344 33.7651 38.9434 33.2891 37.9735 33.0962C37.0036 32.9032 35.9983 33.0019 35.0847 33.3803C34.1711 33.7588 33.3901 34.3999 32.8407 35.2221C32.2913 36.0444 31.998 37.0111 31.998 38C31.998 39.3261 32.5248 40.5979 33.4625 41.5356C34.4002 42.4733 35.672 43 36.998 43ZM36.998 35.7192C37.4493 35.7186 37.8906 35.8518 38.2661 36.102C38.6416 36.3523 38.9344 36.7083 39.1075 37.125C39.2807 37.5417 39.3264 38.0002 39.2388 38.4428C39.1512 38.8855 38.9343 39.292 38.6155 39.6113C38.2967 39.9306 37.8904 40.1484 37.4479 40.2368C37.0054 40.3252 36.5466 40.2803 36.1296 40.1079C35.7126 39.9355 35.3561 39.6431 35.1052 39.268C34.8543 38.893 34.7203 38.4522 34.7201 38.001C34.7206 37.3966 34.9607 36.8169 35.3877 36.3891C35.8147 35.9614 36.3937 35.7208 36.998 35.7192V35.7192Z" fill="#1A1818"/>
    <path d="M49.998 43C50.987 43 51.9538 42.7066 52.776 42.1572C53.5982 41.6078 54.2391 40.8272 54.6176 39.9135C54.996 38.9999 55.0949 37.9943 54.902 37.0244C54.7091 36.0545 54.233 35.1636 53.5337 34.4643C52.8344 33.7651 51.9434 33.2891 50.9735 33.0962C50.0036 32.9032 48.9983 33.0019 48.0847 33.3803C47.1711 33.7588 46.3901 34.3999 45.8407 35.2221C45.2913 36.0444 44.998 37.0111 44.998 38C44.998 39.3261 45.5248 40.5979 46.4625 41.5356C47.4002 42.4733 48.672 43 49.998 43ZM49.998 35.7192C50.4493 35.7186 50.8906 35.8518 51.2661 36.102C51.6416 36.3523 51.9344 36.7083 52.1075 37.125C52.2807 37.5417 52.3264 38.0002 52.2388 38.4428C52.1512 38.8855 51.9343 39.292 51.6155 39.6113C51.2967 39.9306 50.8904 40.1484 50.4479 40.2368C50.0054 40.3252 49.5466 40.2803 49.1296 40.1079C48.7126 39.9355 48.3561 39.6431 48.1052 39.268C47.8543 38.893 47.7203 38.4522 47.7201 38.001C47.7206 37.3966 47.9607 36.8169 48.3877 36.3891C48.8147 35.9614 49.3937 35.7208 49.998 35.7192V35.7192Z" fill="#1A1818"/>
    <path d="M134.256 53.3657L128.77 47.896C128.181 47.3183 127.474 46.8745 126.698 46.5957C125.714 46.2156 124.647 46.1025 123.605 46.2676C122.563 46.4327 121.583 46.8705 120.765 47.5361C120.617 47.6571 120.456 47.758 120.319 47.895C120.153 48.062 114.205 53.9879 114.356 53.8369V35.9751C114.35 33.5911 113.398 31.3066 111.709 29.6235C110.021 27.9405 107.734 26.9965 105.35 26.9981H19.8499C17.4655 26.9959 15.1777 27.94 13.4888 29.6231C11.7999 31.3061 10.8479 33.5908 10.8418 35.9751V109.907H5.50977C5.11194 109.907 4.7304 110.065 4.4491 110.346C4.16779 110.627 4.00977 111.009 4.00977 111.407C4.00977 111.805 4.16779 112.186 4.4491 112.468C4.7304 112.749 5.11194 112.907 5.50977 112.907L21.0428 112.921C21.0838 112.921 21.1198 112.901 21.1598 112.898H22.9888C23.3866 112.898 23.7681 112.74 24.0494 112.458C24.3307 112.177 24.4888 111.796 24.4888 111.398C24.4888 111 24.3307 110.619 24.0494 110.337C23.7681 110.056 23.3866 109.898 22.9888 109.898H13.8558V48.7559H111.343V56.8467L85.4998 82.604C85.3246 82.7986 85.1919 83.0273 85.1099 83.2759L80.7488 99.3892C80.6787 99.6448 80.6777 99.9142 80.7457 100.17C80.8138 100.427 80.9485 100.66 81.1362 100.848C81.3239 101.035 81.5579 101.168 81.8143 101.236C82.0707 101.303 82.3404 101.302 82.5958 101.231L98.7648 96.8838C99.0124 96.8001 99.2409 96.6682 99.4368 96.4951L111.344 84.6279V109.898H31.7148C31.317 109.898 30.9355 110.056 30.6542 110.337C30.3729 110.619 30.2148 111 30.2148 111.398C30.2148 111.796 30.3729 112.177 30.6542 112.458C30.9355 112.74 31.317 112.898 31.7148 112.898H32.0629C32.1136 112.911 32.1649 112.921 32.2168 112.929L124.529 113.001C124.927 113.001 125.308 112.843 125.589 112.562C125.871 112.28 126.029 111.899 126.029 111.501C126.029 111.103 125.871 110.722 125.589 110.44C125.308 110.159 124.927 110.001 124.529 110.001L114.355 109.993V81.626L134.255 61.792C134.809 61.2395 135.25 60.5828 135.55 59.8599C135.85 59.1369 136.005 58.3619 136.005 57.5791C136.005 56.7963 135.851 56.0213 135.55 55.2983C135.25 54.5753 134.81 53.9183 134.256 53.3657V53.3657ZM19.8558 30.002H105.356C106.942 30.0009 108.464 30.6295 109.588 31.7495C110.712 32.8695 111.345 34.3896 111.349 35.9761V45.7471H13.8558V35.9761C13.8606 34.3902 14.4941 32.871 15.6173 31.7515C16.7406 30.632 18.2619 30.0034 19.8478 30.0039L19.8558 30.002ZM98.3759 93.3018L88.6998 83.6567L117.65 54.8062L127.327 64.4468L98.3759 93.3018ZM87.3458 86.5547L95.4698 94.6548L84.3438 97.645L87.3458 86.5547ZM129.458 62.3228L119.781 52.6821L122.434 50.0361C122.539 49.9368 122.652 49.8448 122.771 49.7617C122.813 49.7317 122.851 49.6911 122.895 49.6621C122.994 49.602 123.096 49.5481 123.202 49.501C123.272 49.4608 123.345 49.4245 123.419 49.3921C123.46 49.3775 123.502 49.3651 123.544 49.355C123.684 49.3018 123.829 49.2606 123.976 49.2319C124.006 49.2249 124.036 49.2317 124.065 49.2217C124.217 49.1968 124.371 49.1828 124.526 49.1797C125.308 49.1808 126.059 49.4913 126.614 50.043L132.101 55.5098C132.375 55.7841 132.593 56.1098 132.741 56.4683C132.89 56.8267 132.966 57.2112 132.966 57.5991C132.966 57.9871 132.89 58.3711 132.741 58.7295C132.593 59.0879 132.375 59.4137 132.101 59.688L129.458 62.3228Z" fill="#1A1818"/>
</svg>
