<svg xmlns="http://www.w3.org/2000/svg" width="24" height="24" viewBox="0 0 24 24">
  <g id="ico_24_watch" transform="translate(-428 -316)">
    <path id="base" d="M0,0H24V24H0Z" transform="translate(428 316)" fill="none" opacity="0"/>
    <path id="path" d="M0,0V2.79l1.4,1.4" transform="translate(440 325.66)" fill="none" stroke="#1f1f1f" stroke-linecap="round" stroke-linejoin="round" stroke-width="1.5"/>
    <path id="path-2" data-name="path" d="M0,6.5a6.5,6.5,0,1,1,10.5,5.13h-.01a6.489,6.489,0,0,1-7.95.02H2.53A6.486,6.486,0,0,1,0,6.5Z" transform="translate(433.5 321.5)" fill="none" stroke="#1f1f1f" stroke-linecap="round" stroke-linejoin="round" stroke-width="1.5"/>
    <path id="path-3" data-name="path" d="M0,.02H.01A6.444,6.444,0,0,0,3.97,1.37,6.443,6.443,0,0,0,7.96,0h.01L7.46,2.47a2.741,2.741,0,0,1-2.94,2.4H3.43A2.736,2.736,0,0,1,.49,2.46Z" transform="translate(436.03 333.13)" fill="none" stroke="#1f1f1f" stroke-linecap="round" stroke-linejoin="round" stroke-width="1.5"/>
    <path id="path-4" data-name="path" d="M0,4.85H.01a6.489,6.489,0,0,1,7.95.02h.01L7.46,2.4A2.741,2.741,0,0,0,4.52,0H3.43A2.736,2.736,0,0,0,.49,2.41Z" transform="translate(436.03 318)" fill="none" stroke="#1f1f1f" stroke-linecap="round" stroke-linejoin="round" stroke-width="1.5"/>
  </g>
</svg>
