<svg xmlns="http://www.w3.org/2000/svg" width="24" height="24" viewBox="0 0 24 24">
  <g id="ico_24_filter_square" transform="translate(-620 -508)">
    <path id="base" d="M0,0H24V24H0Z" transform="translate(620 508)" fill="none" opacity="0"/>
    <path id="path" d="M1.16,0H8.83A1.161,1.161,0,0,1,9.99,1.16V2.44a2.167,2.167,0,0,1-.58,1.34L6.91,5.99a1.883,1.883,0,0,0-.58,1.34v2.5a1.3,1.3,0,0,1-.52.99L5,11.33a1.182,1.182,0,0,1-1.8-.99V7.26a2.183,2.183,0,0,0-.47-1.22L.52,3.71A1.89,1.89,0,0,1,0,2.55V1.22A1.175,1.175,0,0,1,1.16,0Z" transform="translate(627 514.65)" fill="none" stroke="#1f1f1f" stroke-linecap="round" stroke-linejoin="round" stroke-width="1.5"/>
    <path id="path-2" data-name="path" d="M7,20h6c5,0,7-2,7-7V7c0-5-2-7-7-7H7C2,0,0,2,0,7v6C0,18,2,20,7,20Z" transform="translate(622 510)" fill="none" stroke="#1f1f1f" stroke-linecap="round" stroke-linejoin="round" stroke-width="1.5"/>
  </g>
</svg>
