<svg width="57" height="56" viewBox="0 0 57 56" fill="none" xmlns="http://www.w3.org/2000/svg">
<path fill-rule="evenodd" clip-rule="evenodd" d="M9.51652 8.36635C9.40959 8.35705 9.30153 8.35705 9.1946 8.36635C5.60809 8.67809 2.81135 11.7128 2.80878 15.4075C2.80875 15.4526 2.81172 15.4971 2.81751 15.5408V16.7623C2.81751 17.8669 3.71294 18.7623 4.81751 18.7623H13.9023C15.0069 18.7623 15.9023 17.8669 15.9023 16.7623V15.4126C15.9023 11.7156 13.1047 8.67823 9.51652 8.36635ZM9.35556 10.3599C11.8928 10.5868 13.9023 12.7457 13.9023 15.4126V16.7623H4.81751V15.417C4.81751 15.3755 4.81499 15.3345 4.8101 15.2943C4.86848 12.6821 6.8559 10.5835 9.35556 10.3599Z" fill="#1A1818"/>
<path d="M9.35501 9.35668C10.5 9.35668 11.5 9.33008 11.6485 9.33008H35.6913C39.0019 9.33008 41.6836 12.0522 41.6836 15.4127L41.5999 38.2414C41.5979 38.7922 41.1508 39.2377 40.5999 39.2377H29.4936C28.9413 39.2377 28.4936 39.6854 28.4936 40.2377V41.5874C28.4936 44.4029 26.6027 46.7681 24.0353 47.4571C23.9171 47.4888 23.925 47.67 24.0474 47.67H20.7893C17.4787 47.67 14.797 44.9479 14.797 41.5874L14.8843 17.7624V15.4127C14.8843 12.2029 12.4472 9.58721 9.34628 9.35668H9.35501Z" fill="#E3EDFF"/>
<path fill-rule="evenodd" clip-rule="evenodd" d="M42.6836 15.4127C42.6836 11.5141 39.5683 8.33008 35.6913 8.33008H9.80051C9.65862 8.33008 9.47234 8.34478 9.36555 8.3532C9.34517 8.35481 9.32768 8.35619 9.31395 8.35719C8.79084 8.37383 8.36652 8.79291 8.34697 9.31958C8.32702 9.85706 8.73577 10.3141 9.27214 10.3539C11.8425 10.545 13.8843 12.7178 13.8843 15.4127V17.7624L13.797 41.5874C13.797 45.4861 16.9123 48.67 20.7893 48.67H24.0474C24.3871 48.67 24.6871 48.5008 24.8679 48.242C27.5708 47.2578 29.4936 44.6474 29.4936 41.5874L29.4936 40.2377H40.5999C41.7016 40.2377 42.5958 39.3468 42.5999 38.2451L42.6836 15.4164L42.6836 15.4127ZM23.4002 46.67H20.7893C18.0455 46.67 15.7978 44.4106 15.797 41.589C15.797 41.5884 15.797 41.5879 15.797 41.5874L15.8843 17.7661L15.8843 17.7624V15.4127C15.8843 13.4192 15.073 11.6166 13.7621 10.3301H35.6913C38.435 10.3301 40.6827 12.5894 40.6836 15.4109C40.6836 15.4115 40.6836 15.4121 40.6836 15.4127L40.5999 38.2377H29.4936C28.389 38.2377 27.4936 39.1332 27.4936 40.2377V41.5874C27.4936 43.9463 25.9106 45.9185 23.7762 46.4912C23.6305 46.5303 23.5055 46.5924 23.4002 46.67Z" fill="#1A1818"/>
<path d="M28.489 41.587C28.4866 41.587 28.4847 41.585 28.4847 41.5826V40.2373C28.4847 39.685 28.9324 39.2373 29.4847 39.2373H52.1875C52.7398 39.2373 53.1875 39.685 53.1875 40.2373V41.587C53.1875 44.8854 50.6106 47.5632 47.3874 47.6607C47.4485 47.6607 47.5097 47.6696 47.5708 47.6696H24.0472C23.9248 47.6696 23.9169 47.4884 24.0351 47.4566C26.6012 46.7681 28.4914 44.405 28.4934 41.5914C28.4934 41.589 28.4914 41.587 28.489 41.587Z" fill="white"/>
<path fill-rule="evenodd" clip-rule="evenodd" d="M54.1875 40.2373C54.1875 39.1327 53.2921 38.2373 52.1875 38.2373L52.1875 41.587C52.1875 44.3575 50.0277 46.5804 47.3572 46.6612C47.3223 46.6623 47.2878 46.6651 47.2539 46.6696H27.3612C28.6763 45.3842 29.492 43.5835 29.4934 41.5921C29.4934 41.547 29.4905 41.5025 29.4847 41.4588V40.2373L52.1875 40.2373L52.1875 38.2373H29.4847C28.3801 38.2373 27.4847 39.1327 27.4847 40.2373V41.5826C27.4847 41.6241 27.4872 41.6651 27.4921 41.7052C27.4402 44.0115 25.8746 45.9276 23.776 46.4908C23.1787 46.6511 22.9304 47.197 22.9522 47.6258C22.9634 47.8464 23.0437 48.1035 23.2416 48.3184C23.4549 48.5499 23.749 48.6696 24.0472 48.6696H47.5708C47.6606 48.6696 47.7476 48.6578 47.8304 48.6356C51.4095 48.315 54.1875 45.2729 54.1875 41.587V40.2373Z" fill="#1A1818"/>
<path d="M28.524 21.3056C27.9582 21.3056 27.5468 21.5817 27.3582 22.3409L26.3297 26.4477H24.4611L23.484 22.0476C23.3297 21.3747 22.7982 21.2194 22.284 21.3401C21.7182 21.4609 21.3925 21.8923 21.5468 22.5307L22.5068 26.4477H21.1182C20.7754 26.4477 20.6211 26.7237 20.6211 27.0688C20.6211 27.3967 20.7754 27.6728 21.1182 27.6728H22.7982L24.0497 32.7285C24.2211 33.505 24.7354 33.7811 25.2154 33.7811C25.6954 33.7811 26.2097 33.505 26.3982 32.7458L27.6668 27.6728H29.3125L30.4782 32.7112C30.6668 33.505 31.164 33.7811 31.644 33.7811C32.124 33.7811 32.6211 33.505 32.8097 32.7458L34.0611 27.6728H35.724C36.0668 27.6728 36.2211 27.3967 36.2211 27.0688C36.2211 26.7237 36.0668 26.4477 35.724 26.4477H34.3525L35.3297 22.5307C35.484 21.8923 35.1582 21.4609 34.6097 21.3401C34.1125 21.2366 33.564 21.4264 33.4268 22.0476L32.4497 26.4477H30.6497L29.6897 22.3409C29.5011 21.5817 29.0554 21.3056 28.524 21.3056ZM24.7354 27.6728H26.0211L25.3354 30.3991L24.7354 27.6728ZM30.9411 27.6728H32.1754L31.5754 30.3818L30.9411 27.6728ZM28.524 24.2735L29.0211 26.4477H27.9754L28.524 24.2735Z" fill="#1A1818"/>
</svg>
