<svg width="57" height="56" viewBox="0 0 57 56" fill="none" xmlns="http://www.w3.org/2000/svg">
<path d="M20.8309 44.0786C20.8286 44.0786 20.8267 44.0767 20.8267 44.0743V43.7946C20.8267 43.6377 20.9538 43.5106 21.1107 43.5106H37.464C38.0163 43.5106 38.464 43.0629 38.464 42.5106V13.1055C38.464 12.5532 38.0163 12.1055 37.464 12.1055H9.27344C8.72115 12.1055 8.27344 12.5532 8.27344 13.1055V44.0786C8.27344 47.4294 10.2228 50.3203 13.0171 51.6061C13.1401 51.6628 13.2746 51.6895 13.4101 51.6895H15.6985C15.834 51.6895 15.9685 51.6628 16.0915 51.6061C18.8846 50.3209 20.8335 47.4318 20.8352 44.0828C20.8352 44.0805 20.8333 44.0786 20.8309 44.0786V44.0786Z" fill="#E3EDFF"/>
<path fill-rule="evenodd" clip-rule="evenodd" d="M7.27344 13.1055C7.27344 12.0009 8.16887 11.1055 9.27344 11.1055H37.464C38.5686 11.1055 39.464 12.0009 39.464 13.1055V42.5106C39.464 43.6151 38.5686 44.5106 37.464 44.5106H21.8255C21.6652 48.0701 19.535 51.1224 16.5096 52.5146C16.2436 52.637 15.9647 52.6895 15.6985 52.6895H13.4101C13.1439 52.6895 12.865 52.637 12.599 52.5146C9.45187 51.0664 7.27344 47.8219 7.27344 44.0786V13.1055ZM37.464 13.1055H9.27344V44.0786C9.27344 47.0298 10.9854 49.562 13.4174 50.6895H15.6912C18.0903 49.5773 19.7887 47.098 19.8342 44.1981C19.8292 44.1575 19.8267 44.1162 19.8267 44.0743V43.7946C19.8267 43.0854 20.4015 42.5106 21.1107 42.5106H37.464V13.1055Z" fill="#1A1818"/>
<path d="M38.4531 51.6897H38.7825C38.918 51.6897 39.0525 51.6629 39.1755 51.6063C41.9698 50.3205 43.9192 47.4296 43.9192 44.0787V44.0787C43.9192 43.765 43.6649 43.5107 43.3512 43.5107H38.4531" fill="white"/>
<path fill-rule="evenodd" clip-rule="evenodd" d="M38.4531 42.5107H43.3512C44.2172 42.5107 44.9192 43.2128 44.9192 44.0787C44.9192 47.822 42.7407 51.0666 39.5936 52.5147C39.3276 52.6371 39.0487 52.6897 38.7825 52.6897H38.4531V50.6897H38.7752C41.0877 49.6176 42.7491 47.2755 42.9069 44.5107H38.4531V42.5107Z" fill="#1A1818"/>
<path d="M38.4547 43.5107H21.3938C21.0802 43.5107 20.8259 43.765 20.8259 44.0787V44.0787C20.8259 45.732 20.3513 47.2732 19.5349 48.565C18.954 49.4842 19.6776 51.6897 20.765 51.6897H38.4547" fill="white"/>
<path fill-rule="evenodd" clip-rule="evenodd" d="M19.826 43.5107C19.826 42.9585 20.2737 42.5107 20.826 42.5107H38.4548V44.5107H21.8163C21.7077 46.9228 20.6945 49.1021 19.1109 50.6897H38.4548V52.6897H15.8946C15.4199 52.6897 15.0106 52.3559 14.9151 51.8908C14.8196 51.4258 15.0642 50.9577 15.5006 50.7706C18.0281 49.687 19.826 47.1032 19.826 44.0787V43.5107Z" fill="#1A1818"/>
<path d="M48.7184 4.31055H30C29.4477 4.31055 29 4.75826 29 5.31055V30.1106C29 30.6629 29.4477 31.1106 30 31.1106H48.7184C49.2707 31.1106 49.7184 30.6629 49.7184 30.1106V5.31055C49.7184 4.75826 49.2707 4.31055 48.7184 4.31055Z" fill="white"/>
<path fill-rule="evenodd" clip-rule="evenodd" d="M28 5.31055C28 4.20598 28.8954 3.31055 30 3.31055H48.7184C49.8229 3.31055 50.7184 4.20598 50.7184 5.31055V30.1106C50.7184 31.2152 49.8229 32.1106 48.7184 32.1106H30C28.8954 32.1106 28 31.2152 28 30.1106V5.31055ZM48.7184 5.31055H30V30.1106L48.7184 30.1106L48.7184 5.31055Z" fill="#1A1818"/>
<path d="M41.9199 14.823C41.9199 16.326 40.7402 17.5406 39.2803 17.5406C37.8204 17.5406 36.6406 16.326 36.6406 14.823C36.6406 13.3201 37.8204 12.1055 39.2803 12.1055C40.7402 12.1055 41.9199 13.3201 41.9199 14.823Z" fill="white"/>
<path fill-rule="evenodd" clip-rule="evenodd" d="M39.2803 13.1055C38.3999 13.1055 37.6406 13.8447 37.6406 14.823C37.6406 15.8014 38.3999 16.5406 39.2803 16.5406C40.1607 16.5406 40.9199 15.8014 40.9199 14.823C40.9199 13.8447 40.1607 13.1055 39.2803 13.1055ZM35.6406 14.823C35.6406 12.7954 37.2409 11.1055 39.2803 11.1055C41.3197 11.1055 42.9199 12.7954 42.9199 14.823C42.9199 16.8507 41.3197 18.5406 39.2803 18.5406C37.2409 18.5406 35.6406 16.8507 35.6406 14.823Z" fill="#1A1818"/>
<path d="M42.8026 21.2982C42.8026 19.2972 41.2239 17.6719 39.2802 17.6719C37.3365 17.6719 35.7578 19.2972 35.7578 21.2982V23.243C35.7578 23.7953 36.2055 24.243 36.7578 24.243H41.8026C42.3548 24.243 42.8026 23.7953 42.8026 23.243V21.2982Z" fill="white"/>
<path fill-rule="evenodd" clip-rule="evenodd" d="M34.7578 21.2982C34.7578 18.7725 36.757 16.6719 39.2802 16.6719C41.8034 16.6719 43.8026 18.7725 43.8026 21.2982V23.243C43.8026 24.3476 42.9071 25.243 41.8026 25.243H36.7578C35.6532 25.243 34.7578 24.3476 34.7578 23.243L41.8026 23.243V21.2982C41.8026 19.8218 40.6444 18.6719 39.2802 18.6719C37.916 18.6719 36.7578 19.8218 36.7578 21.2982V23.243L34.7578 23.243V21.2982Z" fill="#1A1818"/>
</svg>
