<svg xmlns="http://www.w3.org/2000/svg" width="24" height="24" viewBox="0 0 24 24">
  <g id="ico_24_video02" transform="translate(-300 -254)">
    <path id="base" d="M0,0H24V24H0Z" transform="translate(300 254)" fill="none" opacity="0"/>
    <path id="path" d="M0,3.617V2.137C0,.227,1.35-.543,3,.407l1.28.74,1.28.74c1.65.95,1.65,2.51,0,3.46l-1.28.74L3,6.827C1.35,7.777,0,7,0,5.1Z" transform="translate(309.1 262.383)" fill="none" stroke="#1f1f1f" stroke-linecap="round" stroke-linejoin="round" stroke-width="1.5"/>
    <path id="path-2" data-name="path" d="M20,10A10,10,0,1,1,10,0,10,10,0,0,1,20,10Z" transform="translate(302 256)" fill="none" stroke="#1f1f1f" stroke-linecap="round" stroke-linejoin="round" stroke-width="1.5"/>
  </g>
</svg>
