<svg width="141" height="140" viewBox="0 0 141 140" fill="none" xmlns="http://www.w3.org/2000/svg">
<path d="M137.499 112.975H55.1401C54.7457 112.985 54.3708 113.148 54.0955 113.431C53.8201 113.713 53.666 114.092 53.666 114.487C53.666 114.881 53.8201 115.26 54.0955 115.543C54.3708 115.826 54.7457 115.989 55.1401 116H137.499C137.893 115.989 138.268 115.826 138.544 115.543C138.819 115.26 138.973 114.881 138.973 114.487C138.973 114.092 138.819 113.713 138.544 113.431C138.268 113.148 137.893 112.985 137.499 112.975Z" fill="#1A1818"/>
<path d="M45.499 112.975H3.14014C2.74573 112.985 2.37083 113.148 2.09546 113.431C1.82009 113.713 1.66602 114.092 1.66602 114.487C1.66602 114.881 1.82009 115.26 2.09546 115.543C2.37083 115.826 2.74573 115.989 3.14014 116H45.499C45.8934 115.989 46.2683 115.826 46.5437 115.543C46.8191 115.26 46.9731 114.881 46.9731 114.487C46.9731 114.092 46.8191 113.713 46.5437 113.431C46.2683 113.148 45.8934 112.985 45.499 112.975Z" fill="#1A1818"/>
<g clip-path="url(#clip0_849_14897)">
<path fill-rule="evenodd" clip-rule="evenodd" d="M39.29 93.5988V113.83C39.29 114.658 39.9616 115.33 40.79 115.33C41.6184 115.33 42.29 114.658 42.29 113.83V95.4948C41.1627 95.0638 40.1605 94.3892 39.29 93.5988ZM35.5 61.75H16.81C13.4616 61.75 10.75 64.4616 10.75 67.81V113.83C10.75 114.658 11.4216 115.33 12.25 115.33C13.0784 115.33 13.75 114.658 13.75 113.83V67.81C13.75 66.1184 15.1184 64.75 16.81 64.75H35.5V61.75Z" fill="#1A1818"/>
<path fill-rule="evenodd" clip-rule="evenodd" d="M22.1602 68.9199C22.1602 68.0915 22.8317 67.4199 23.6602 67.4199H29.3702C30.1986 67.4199 30.8702 68.0915 30.8702 68.9199C30.8702 69.7483 30.1986 70.4199 29.3702 70.4199H23.6602C22.8317 70.4199 22.1602 69.7483 22.1602 68.9199Z" fill="#1A1818"/>
<g clip-path="url(#clip1_849_14897)">
<path d="M17.5176 97C20.0777 94.9217 25.807 90.3372 27.0917 88.9069C28.3763 87.4765 27.7028 86 26.2954 86C24.8881 86 23.0176 86.9527 21.5917 89.9237C20.1657 92.8948 21.4165 97 24.5596 97C27.7028 97 30.8749 90.7054 30.8749 90.7054C30.8749 90.7054 30.0805 93.0581 30.5546 94.7694C31.0288 96.4807 32.1842 97 34.0176 97C35.8509 97 34.2213 97 35.8509 97" stroke="#1A1818" stroke-width="2.5" stroke-linecap="round" stroke-linejoin="round"/>
</g>
</g>
<g clip-path="url(#clip2_849_14897)">
<g clip-path="url(#clip3_849_14897)">
<path fill-rule="evenodd" clip-rule="evenodd" d="M45.9413 25.9277C39.2999 25.9277 33.9199 31.3449 33.9199 38.0012V79.039C33.9199 80.1231 34.789 81.0072 35.8858 81.0072H124.114C125.21 81.0072 126.079 80.1231 126.079 79.039V45.3439L123.079 48.0939V78.0072H36.9199V38.0012C36.9199 32.9878 40.9706 28.9277 45.9413 28.9277H114.058C116.54 28.9277 118.793 29.9374 120.426 31.5737L122.548 29.4524C120.373 27.2743 117.372 25.9277 114.058 25.9277H45.9413Z" fill="#1A1818"/>
<path fill-rule="evenodd" clip-rule="evenodd" d="M66.6754 95.6786C66.8677 94.9054 67.5695 94.3809 68.3355 94.3809H91.6736C92.4991 94.3809 93.1531 94.9526 93.3337 95.6786L93.339 95.6997L97.3375 114.028L97.3423 114.055C97.5141 115.004 96.8288 116.073 95.6617 116.073H64.3474C63.1803 116.073 62.495 115.004 62.6668 114.055L62.6716 114.028L66.6701 95.6997L66.6754 95.6786ZM69.3739 97.3809L65.9506 113.073H94.0585L90.6352 97.3809H69.3739Z" fill="#1A1818"/>
<path fill-rule="evenodd" clip-rule="evenodd" d="M33.9199 79.7124C33.9199 78.7767 34.6754 78.0068 35.6244 78.0068H124.375C125.324 78.0068 126.079 78.7767 126.079 79.7124V85.5586C126.079 92.0778 120.824 97.3694 114.319 97.3694H45.68C39.1749 97.3694 33.9199 92.0778 33.9199 85.5586V79.7124ZM36.9199 81.0068V85.5586C36.9199 90.4349 40.8457 94.3694 45.68 94.3694H114.319C119.154 94.3694 123.079 90.4349 123.079 85.5586V81.0068H36.9199Z" fill="#1A1818"/>
</g>
<path d="M52.4336 65.25C58.3685 60.4322 71.65 49.8044 74.628 46.4886C77.6061 43.1728 76.0447 39.7501 72.7823 39.75C69.5199 39.7499 65.1836 41.9585 61.878 48.8459C58.5725 55.7333 61.472 65.25 68.7583 65.25C76.0447 65.25 83.3982 50.6579 83.3982 50.6579C83.3982 50.6579 81.5566 56.112 82.6558 60.0791C83.755 64.0461 86.4336 65.25 90.6836 65.25C94.9336 65.25 91.1558 65.25 94.9336 65.25" stroke="#1A1818" stroke-width="3" stroke-linecap="round" stroke-linejoin="round"/>
</g>
<path fill-rule="evenodd" clip-rule="evenodd" d="M132.086 24.5379C131.049 23.5233 129.65 23.1573 128.319 23.2853C126.995 23.4125 125.673 24.0177 124.622 25.047L98.4965 50.6163C98.4701 50.6408 98.4445 50.6663 98.4199 50.6926C98.2272 50.8956 98.0963 51.1472 98.0396 51.418L93.9982 64.754C93.8385 65.2806 93.9799 65.8523 94.3668 66.2437C94.7536 66.6351 95.3236 66.7833 95.8521 66.6298L109.395 62.6983C109.707 62.6576 110.008 62.5192 110.249 62.283L136.404 36.6678C137.455 35.6384 138.084 34.3334 138.216 33.0139C138.35 31.6812 137.964 30.2911 136.923 29.2723L132.086 24.5379ZM100.231 54.5321L106.3 60.4723L97.672 62.9771L100.231 54.5321ZM109.209 59.1031L110.898 57.4498L134.305 34.5246C134.882 33.959 135.173 33.2953 135.231 32.7144C135.288 32.1466 135.119 31.704 134.825 31.4163L132.406 29.0491L132.406 29.0484L129.988 26.6819C129.689 26.3899 129.216 26.2128 128.606 26.2715C127.987 26.331 127.298 26.6251 126.72 27.191L101.662 51.7162L109.209 59.1031Z" fill="#1A1818"/>
<defs>
<clipPath id="clip0_849_14897">
<rect width="33" height="55" fill="white" transform="translate(10.1836 61)"/>
</clipPath>
<clipPath id="clip1_849_14897">
<rect width="22" height="22" fill="white" transform="translate(15.6836 80.5)"/>
</clipPath>
<clipPath id="clip2_849_14897">
<rect width="106" height="90" fill="white" transform="translate(34.1836 26)"/>
</clipPath>
<clipPath id="clip3_849_14897">
<rect width="92" height="90" fill="white" transform="translate(34 26)"/>
</clipPath>
</defs>
</svg>
