<svg xmlns="http://www.w3.org/2000/svg" width="24" height="24" viewBox="0 0 24 24">
  <g id="ico_24_calendar" transform="translate(-492 -188)">
    <path id="base" d="M.495.5H.5" transform="translate(499.8 204.2)" fill="none" stroke="#292d32" stroke-linecap="round" stroke-linejoin="round" stroke-width="2"/>
    <path id="path" d="M0,0V3" transform="translate(500 190)" fill="none" stroke="#1f1f1f" stroke-linecap="round" stroke-linejoin="round" stroke-width="1.5"/>
    <path id="path-2" data-name="path" d="M0,0V3" transform="translate(508 190)" fill="none" stroke="#1f1f1f" stroke-linecap="round" stroke-linejoin="round" stroke-width="1.5"/>
    <path id="path-3" data-name="path" d="M0,0H17" transform="translate(495.5 197.09)" fill="none" stroke="#1f1f1f" stroke-linecap="round" stroke-linejoin="round" stroke-width="1.5"/>
    <path id="path-4" data-name="path" d="M18,5v8.5c0,3-1.5,5-5,5H5c-3.5,0-5-2-5-5V5C0,2,1.5,0,5,0h8C16.5,0,18,2,18,5Z" transform="translate(495 191.5)" fill="none" stroke="#1f1f1f" stroke-linecap="round" stroke-linejoin="round" stroke-width="1.5"/>
    <g id="path-5" data-name="path" transform="translate(492 188)" fill="none" opacity="0">
      <path d="M0,0H24V24H0Z" stroke="none"/>
      <path d="M 1 1 L 1 23 L 23 23 L 23 1 L 1 1 M 0 0 L 24 0 L 24 24 L 0 24 L 0 0 Z" stroke="none" fill="#1f1f1f"/>
    </g>
    <path id="path-6" data-name="path" d="M.495.5H.5" transform="translate(507.2 201.2)" fill="none" stroke="#1f1f1f" stroke-linecap="round" stroke-linejoin="round" stroke-width="2"/>
    <path id="path-7" data-name="path" d="M.495.5H.5" transform="translate(507.2 204.2)" fill="none" stroke="#1f1f1f" stroke-linecap="round" stroke-linejoin="round" stroke-width="2"/>
    <path id="path-8" data-name="path" d="M.495.5H.5" transform="translate(503.501 201.2)" fill="none" stroke="#1f1f1f" stroke-linecap="round" stroke-linejoin="round" stroke-width="2"/>
    <path id="path-9" data-name="path" d="M.495.5H.5" transform="translate(503.501 204.2)" fill="none" stroke="#1f1f1f" stroke-linecap="round" stroke-linejoin="round" stroke-width="2"/>
    <path id="path-10" data-name="path" d="M.495.5H.5" transform="translate(499.8 201.2)" fill="none" stroke="#1f1f1f" stroke-linecap="round" stroke-linejoin="round" stroke-width="2"/>
  </g>
</svg>
