<svg width="62" height="62" viewBox="0 0 62 62" fill="none" xmlns="http://www.w3.org/2000/svg">
<rect width="62" height="62" rx="6.32653" fill="#F4F7FA"/>
<path d="M18.9608 22.0466C18.6341 19.7598 20.4085 17.7139 22.7185 17.7139H37.3732C39.6832 17.7139 41.4577 19.7598 41.131 22.0466L39.9287 30.4628C39.8778 30.8188 39.8778 31.1803 39.9287 31.5364L41.131 39.9526C41.4577 42.2393 39.6832 44.2853 37.3732 44.2853H22.7185C20.4085 44.2853 18.6341 42.2393 18.9608 39.9526L20.1631 31.5364C20.2139 31.1803 20.2139 30.8188 20.1631 30.4628L18.9608 22.0466Z" fill="#1D57C7"/>
<path d="M20.2408 30.999H39.8509C39.8515 30.999 39.8521 30.9995 39.8521 31.0001L41.131 39.952C41.4577 42.2388 39.6832 44.2847 37.3732 44.2847H22.7185C20.4085 44.2847 18.6341 42.2388 18.9608 39.952L20.2396 31.0001C20.2397 30.9995 20.2402 30.999 20.2408 30.999Z" fill="#407DF1"/>
<circle cx="37.0061" cy="31.3157" r="6.64286" fill="#95E5FF"/>
<path d="M37.0591 28.4702C36.7608 28.4702 36.5439 28.6102 36.4445 28.9951L35.9022 31.0772H34.9171L34.4019 28.8464C34.3206 28.5052 34.0404 28.4265 33.7693 28.4877C33.471 28.549 33.2993 28.7677 33.3806 29.0914L33.8867 31.0772H33.1547C32.9739 31.0772 32.8926 31.2172 32.8926 31.3922C32.8926 31.5584 32.9739 31.6984 33.1547 31.6984H34.0404L34.7002 34.2616C34.7905 34.6553 35.0617 34.7953 35.3147 34.7953C35.5678 34.7953 35.8389 34.6553 35.9384 34.2704L36.6072 31.6984H37.4748L38.0894 34.2529C38.1888 34.6553 38.4509 34.7953 38.7039 34.7953C38.957 34.7953 39.2191 34.6553 39.3185 34.2704L39.9783 31.6984H40.855C41.0357 31.6984 41.1171 31.5584 41.1171 31.3922C41.1171 31.2172 41.0357 31.0772 40.855 31.0772H40.1319L40.6471 29.0914C40.7284 28.7677 40.5567 28.549 40.2675 28.4877C40.0054 28.4352 39.7162 28.5315 39.6439 28.8464L39.1287 31.0772H38.1798L37.6736 28.9951C37.5742 28.6102 37.3392 28.4702 37.0591 28.4702ZM35.0617 31.6984H35.7395L35.378 33.0806L35.0617 31.6984ZM38.3334 31.6984H38.9841L38.6678 33.0719L38.3334 31.6984ZM37.0591 29.9749L37.3211 31.0772H36.7698L37.0591 29.9749Z" fill="white"/>
</svg>
