<svg xmlns="http://www.w3.org/2000/svg" width="140" height="140" viewBox="0 0 140 140">
    <path style="fill:none" d="M0 0h140v140H0z"/>
    <path d="M1576.206 7407.509h-4.687a9.066 9.066 0 0 0 2.264-5.986v-16.6a3.32 3.32 0 0 0-3.307-3.326h-11.645v-54.022a9.012 9.012 0 0 0-8.98-9.021h-66.813a1.465 1.465 0 0 0-.627.148 8.986 8.986 0 0 0-8.353 8.986v8.906a3.322 3.322 0 0 0 3.308 3.327h11.645v38.179a16.308 16.308 0 0 0-11.941 29.333l-22.356-.006a1.513 1.513 0 0 0 0 3.025c-.171.035 51 .085 121.491.081a1.513 1.513 0 0 0 0-3.025zm-17.375-22.894h11.645a.3.3 0 0 1 .3.3v16.6a5.978 5.978 0 1 1-11.945-.338zm-81.464-47.727a.3.3 0 0 1-.3-.3v-8.906a5.984 5.984 0 0 1 6.575-5.966 6.224 6.224 0 0 1 5.372 6.3v8.87zm14.651-8.87v-.451a9.016 9.016 0 0 0-2.276-6h60.109a5.992 5.992 0 0 1 5.974 6v73.952a9.008 9.008 0 0 0 2.26 5.977l-60.739-.047a5.882 5.882 0 0 1-1.043-.209 16.326 16.326 0 0 0 6.477-12.735 16.572 16.572 0 0 0-.25-3.119h45.778a1.513 1.513 0 0 0 0-3.025h-46.617a16.335 16.335 0 0 0-9.674-9.5zm-18.665 65.966a13.213 13.213 0 1 1 14.586 13.457h-2.67a13.279 13.279 0 0 1-11.916-13.456z" transform="translate(-1452.21 -7294.546)" style="fill:#1a1818"/>
    <path data-name="path" d="M1551.315 7377.365h-4.359a1.513 1.513 0 0 0 0 3.025h4.359a1.513 1.513 0 0 0 0-3.025z" transform="translate(-1413.816 -7264.391)" style="fill:#1a1818"/>
    <path data-name="path" d="M1523.681 7371.36h-26.361a1.513 1.513 0 0 0 0 3.025h26.361a1.513 1.513 0 0 0 0-3.025z" transform="translate(-1438.79 -7267.467)" style="fill:#1a1818"/>
    <path data-name="path" d="M1489.864 7361.059h48.776a1.513 1.513 0 0 0 0-3.025h-48.776a1.513 1.513 0 0 0 0 3.025z" transform="translate(-1442.541 -7274.299)" style="fill:#1a1818"/>
    <path data-name="path" d="M1489.864 7354.4h48.776a1.513 1.513 0 0 0 0-3.025h-48.776a1.513 1.513 0 0 0 0 3.025z" transform="translate(-1442.541 -7277.716)" style="fill:#1a1818"/>
    <path data-name="path" d="M1509.732 7359.607a17.578 17.578 0 1 0-15.765-17.483 17.527 17.527 0 0 0 15.765 17.483zm-7.271-6.285a10.038 10.038 0 0 1 5.016-4.738 1.517 1.517 0 0 0 .253-2.649 6.687 6.687 0 1 1 7.415-.021 1.517 1.517 0 0 0 .244 2.651 10.064 10.064 0 0 1 5.011 4.754 13.7 13.7 0 0 1-17.939 0zm8.965-25.752a14.553 14.553 0 0 1 11.258 23.66 13.146 13.146 0 0 0-4.081-4.348 9.683 9.683 0 1 0-14.336.012 13.132 13.132 0 0 0-4.09 4.341 14.554 14.554 0 0 1 11.248-23.665z" transform="translate(-1439.721 -7291.469)" style="fill:#1a1818"/>
    <path data-name="path" d="M1490.438 7366.912a1.193 1.193 0 0 0-1.682-1.692l-7.908 7.945-3.089-3.109a1.2 1.2 0 0 0-1.694 1.693l3.949 3.96a1.164 1.164 0 0 0 1.682 0z" transform="translate(-1448.903 -7270.796)" style="fill:#1a1818"/>
</svg>
