<svg xmlns="http://www.w3.org/2000/svg" width="24" height="24" viewBox="0 0 24 24">
  <g id="ico_24_mobile" transform="translate(-108 -380)">
    <path id="base" d="M0,0H24V24H0Z" transform="translate(108 380)" fill="none" opacity="0"/>
    <path id="path" d="M3.1,1.55A1.55,1.55,0,1,1,1.55,0,1.55,1.55,0,0,1,3.1,1.55Z" transform="translate(118.45 396)" fill="none" stroke="#292d32" stroke-linecap="round" stroke-linejoin="round" stroke-width="1.5"/>
    <path id="path-2" data-name="path" d="M16,5V15c0,4-1,5-5,5H5c-4,0-5-1-5-5V5C0,1,1,0,5,0h6C15,0,16,1,16,5Z" transform="translate(112 382)" fill="none" stroke="#1f1f1f" stroke-linecap="round" stroke-linejoin="round" stroke-width="1.5"/>
    <path id="path-3" data-name="path" d="M4,0H0" transform="translate(118 385.5)" fill="none" stroke="#1f1f1f" stroke-linecap="round" stroke-linejoin="round" stroke-width="1.5"/>
  </g>
</svg>
