<svg xmlns="http://www.w3.org/2000/svg" width="192" height="80" viewBox="0 0 192 80">
  <g id="forms" transform="translate(-262 -5718)">
    <g id="ic_16" transform="translate(-243 4903)">
      <g id="ic-16-arrow-down" transform="translate(569 895) rotate(180)">
        <rect id="base" width="16" height="16" fill="none"/>
        <g id="icon" transform="translate(3 6)">
          <path id="path" d="M0,0,4.707,4.693,9.413,0" fill="none" stroke="#525252" stroke-linecap="round" stroke-linejoin="round" stroke-width="1.5"/>
        </g>
      </g>
      <g id="ic-16-arrow-down-2" data-name="ic-16-arrow-down" transform="translate(-934 657)">
        <rect id="base-2" data-name="base" width="16" height="16" transform="translate(1471 222)" fill="none"/>
        <g id="icon-2" data-name="icon" transform="translate(-0.5 0.5)">
          <path id="path-2" data-name="path" d="M0,0,4.707,4.693,9.413,0" transform="translate(1474.5 227.5)" fill="none" stroke="#525252" stroke-linecap="round" stroke-linejoin="round" stroke-width="1.5"/>
        </g>
      </g>
      <g id="ic_16_error" transform="translate(421 -1565)">
        <path id="path-3" data-name="path" d="M8,1.333A6.667,6.667,0,1,1,1.333,8,6.674,6.674,0,0,1,8,1.333ZM8,0a8,8,0,1,0,8,8A8,8,0,0,0,8,0Zm3.333,10.359L8.939,7.993,11.3,5.6l-.944-.935L8,7.059,5.6,4.7l-.937.937L7.062,8,4.7,10.4l.937.937L8,8.936,10.4,11.3Z" transform="translate(100 2444)" fill="#d72222"/>
      </g>
      <g id="ic_16_success" transform="translate(405 -1565)">
        <path id="path-4" data-name="path" d="M8,1.333A6.667,6.667,0,1,1,1.333,8,6.674,6.674,0,0,1,8,1.333ZM8,0a8,8,0,1,0,8,8A8,8,0,0,0,8,0Zm4.167,5.927-.947-.939L7.149,9.133,5.1,7.175l-.931.957,3,2.879Z" transform="translate(100 2444)" fill="#26a769"/>
      </g>
    </g>
    <g id="ic_16-2" data-name="ic_16" transform="translate(-243 4933)">
      <g id="ic-16-attach_point_" data-name="ic-16-attach(point)" transform="translate(113 -3767)">
        <rect id="base-3" data-name="base" width="16" height="16" transform="translate(424 4600)" fill="none"/>
        <g id="icon-3" data-name="icon" transform="translate(234 4633)">
          <path id="path-5" data-name="path" d="M9.325,17.438A4.167,4.167,0,0,1,6.279,16.19a4.118,4.118,0,0,1-1.258-3.037V4.6a3.051,3.051,0,0,1,.924-2.241,3.028,3.028,0,0,1,2.221-.924,2.983,2.983,0,0,1,2.2.913,3.054,3.054,0,0,1,.9,2.231v7.666a1.953,1.953,0,0,1-.57,1.386,1.88,1.88,0,0,1-2.752,0,1.953,1.953,0,0,1-.57-1.386V4.563H8.5v7.666a.857.857,0,0,0,.236.619.783.783,0,0,0,.59.246.792.792,0,0,0,.58-.246.839.839,0,0,0,.245-.619V4.6a1.971,1.971,0,0,0-.579-1.435,1.9,1.9,0,0,0-1.406-.59,1.919,1.919,0,0,0-1.425.59A1.969,1.969,0,0,0,6.161,4.6v8.53a3.154,3.154,0,0,0,3.165,3.184,3.138,3.138,0,0,0,3.165-3.165V4.563h1.14v8.59a4.117,4.117,0,0,1-1.259,3.037A4.165,4.165,0,0,1,9.325,17.438Z" transform="translate(188.979 -34.438)" fill="#0f62fe"/>
        </g>
      </g>
      <g id="ic-16-attach_gray_" data-name="ic-16-attach(gray)" transform="translate(97 -3767)">
        <rect id="base-4" data-name="base" width="16" height="16" transform="translate(424 4600)" fill="none"/>
        <g id="icon-4" data-name="icon" transform="translate(234 4633)">
          <path id="path-6" data-name="path" d="M9.325,17.438A4.167,4.167,0,0,1,6.279,16.19a4.118,4.118,0,0,1-1.258-3.037V4.6a3.051,3.051,0,0,1,.924-2.241,3.028,3.028,0,0,1,2.221-.924,2.983,2.983,0,0,1,2.2.913,3.054,3.054,0,0,1,.9,2.231v7.666a1.953,1.953,0,0,1-.57,1.386,1.88,1.88,0,0,1-2.752,0,1.953,1.953,0,0,1-.57-1.386V4.563H8.5v7.666a.857.857,0,0,0,.236.619.783.783,0,0,0,.59.246.792.792,0,0,0,.58-.246.839.839,0,0,0,.245-.619V4.6a1.971,1.971,0,0,0-.579-1.435,1.9,1.9,0,0,0-1.406-.59,1.919,1.919,0,0,0-1.425.59A1.969,1.969,0,0,0,6.161,4.6v8.53a3.154,3.154,0,0,0,3.165,3.184,3.138,3.138,0,0,0,3.165-3.165V4.563h1.14v8.59a4.117,4.117,0,0,1-1.259,3.037A4.165,4.165,0,0,1,9.325,17.438Z" transform="translate(188.979 -34.438)" fill="#999"/>
        </g>
      </g>
      <g id="ic-16-attach_white_" data-name="ic-16-attach(white)" transform="translate(81 -3767)">
        <rect id="base-5" data-name="base" width="16" height="16" transform="translate(424 4600)" fill="none"/>
        <g id="icon-5" data-name="icon" transform="translate(234 4633)">
          <path id="path-7" data-name="path" d="M9.325,17.438A4.167,4.167,0,0,1,6.279,16.19a4.118,4.118,0,0,1-1.258-3.037V4.6a3.051,3.051,0,0,1,.924-2.241,3.028,3.028,0,0,1,2.221-.924,2.983,2.983,0,0,1,2.2.913,3.054,3.054,0,0,1,.9,2.231v7.666a1.953,1.953,0,0,1-.57,1.386,1.88,1.88,0,0,1-2.752,0,1.953,1.953,0,0,1-.57-1.386V4.563H8.5v7.666a.857.857,0,0,0,.236.619.783.783,0,0,0,.59.246.792.792,0,0,0,.58-.246.839.839,0,0,0,.245-.619V4.6a1.971,1.971,0,0,0-.579-1.435,1.9,1.9,0,0,0-1.406-.59,1.919,1.919,0,0,0-1.425.59A1.969,1.969,0,0,0,6.161,4.6v8.53a3.154,3.154,0,0,0,3.165,3.184,3.138,3.138,0,0,0,3.165-3.165V4.563h1.14v8.59a4.117,4.117,0,0,1-1.259,3.037A4.165,4.165,0,0,1,9.325,17.438Z" transform="translate(188.979 -34.438)" fill="#fff"/>
        </g>
      </g>
    </g>
    <g id="ic_24" transform="translate(-38 4615)">
      <g id="ic-24-radio-checked" transform="translate(494 1127.5)">
        <rect id="base-6" data-name="base" width="24" height="24" transform="translate(-26 -0.5)" fill="none"/>
        <g id="icon-check" transform="translate(-81 -444.5)">
          <g id="base-7" data-name="base" transform="translate(56 445)" fill="#dbdbdb" stroke="#dbdbdb" stroke-width="1">
            <rect width="22" height="22" rx="11" stroke="none"/>
            <rect x="0.5" y="0.5" width="21" height="21" rx="10.5" fill="none"/>
          </g>
          <g id="icon-6" data-name="icon" transform="translate(-985.5 -2747.031)">
            <circle id="oval" cx="4" cy="4" r="4" transform="translate(1048.5 3199.031)" fill="#fff"/>
          </g>
        </g>
      </g>
      <g id="ic-24-radio-unchecked" transform="translate(470 1127.5)">
        <rect id="base-8" data-name="base" width="24" height="24" transform="translate(-26 -0.5)" fill="none"/>
        <g id="icon-check-2" data-name="icon-check" transform="translate(-81 -444.5)">
          <g id="base-9" data-name="base" transform="translate(56 445)" fill="#f7f7f7" stroke="#dbdbdb" stroke-width="1">
            <rect width="22" height="22" rx="11" stroke="none"/>
            <rect x="0.5" y="0.5" width="21" height="21" rx="10.5" fill="none"/>
          </g>
        </g>
      </g>
      <g id="ic-24-radio-checked-2" data-name="ic-24-radio-checked" transform="translate(446 1127.5)">
        <rect id="base-10" data-name="base" width="24" height="24" transform="translate(-26 -0.5)" fill="none"/>
        <g id="icon-check-3" data-name="icon-check" transform="translate(-81 -444.5)">
          <g id="base-11" data-name="base" transform="translate(56 445)" fill="#0f62fe" stroke="#0f62fe" stroke-width="1">
            <rect width="22" height="22" rx="11" stroke="none"/>
            <rect x="0.5" y="0.5" width="21" height="21" rx="10.5" fill="none"/>
          </g>
          <g id="icon-7" data-name="icon" transform="translate(-985.5 -2747.031)">
            <circle id="oval-2" data-name="oval" cx="4" cy="4" r="4" transform="translate(1048.5 3199.031)" fill="#fff"/>
          </g>
        </g>
      </g>
      <g id="ic-24-radio-unchecked-2" data-name="ic-24-radio-unchecked" transform="translate(422 1127.5)">
        <rect id="base-12" data-name="base" width="24" height="24" transform="translate(-26 -0.5)" fill="none"/>
        <g id="icon-check-4" data-name="icon-check" transform="translate(-81 -444.5)">
          <g id="base-13" data-name="base" transform="translate(56 445)" fill="#fff" stroke="#dbdbdb" stroke-width="1">
            <rect width="22" height="22" rx="11" stroke="none"/>
            <rect x="0.5" y="0.5" width="21" height="21" rx="10.5" fill="none"/>
          </g>
        </g>
      </g>
      <g id="ic-24-check-checked" transform="translate(372 1127.5)">
        <rect id="base-14" data-name="base" width="24" height="24" transform="translate(0 -0.5)" fill="none"/>
        <g id="icon-check-5" data-name="icon-check" transform="translate(-55 -444.5)">
          <g id="base-15" data-name="base" transform="translate(57 446)" fill="#dbdbdb" stroke="#dbdbdb" stroke-width="1">
            <rect width="20" height="20" rx="4" stroke="none"/>
            <rect x="0.5" y="0.5" width="19" height="19" rx="3.5" fill="none"/>
          </g>
          <g id="icon-8" data-name="icon" transform="translate(-985.5 -2747.031)">
            <path id="path-8" data-name="path" d="M8,66l3,3,5-5" transform="translate(1040.5 3137.031)" fill="none" stroke="#fff" stroke-linecap="round" stroke-linejoin="round" stroke-width="2"/>
          </g>
        </g>
      </g>
      <g id="ic-24-check-unchecked" transform="translate(348 1127.5)">
        <rect id="base-16" data-name="base" width="24" height="24" transform="translate(0 -0.5)" fill="none"/>
        <g id="icon-check-6" data-name="icon-check" transform="translate(-55 -444.5)">
          <g id="base-17" data-name="base" transform="translate(57 446)" fill="#f7f7f7" stroke="#dbdbdb" stroke-width="1">
            <rect width="20" height="20" rx="4" stroke="none"/>
            <rect x="0.5" y="0.5" width="19" height="19" rx="3.5" fill="none"/>
          </g>
        </g>
      </g>
      <g id="ic-24-check-checked-2" data-name="ic-24-check-checked" transform="translate(324 1127.5)">
        <rect id="base-18" data-name="base" width="24" height="24" transform="translate(0 -0.5)" fill="none"/>
        <g id="icon-check-7" data-name="icon-check" transform="translate(-55 -444.5)">
          <g id="base-19" data-name="base" transform="translate(57 446)" fill="#0f62fe" stroke="#0f62fe" stroke-width="1">
            <rect width="20" height="20" rx="4" stroke="none"/>
            <rect x="0.5" y="0.5" width="19" height="19" rx="3.5" fill="none"/>
          </g>
          <g id="icon-9" data-name="icon" transform="translate(-985.5 -2747.031)">
            <path id="path-9" data-name="path" d="M8,66l3,3,5-5" transform="translate(1040.5 3137.031)" fill="none" stroke="#fff" stroke-linecap="round" stroke-linejoin="round" stroke-width="2"/>
          </g>
        </g>
      </g>
      <g id="ic-24-check-unchecked-2" data-name="ic-24-check-unchecked" transform="translate(300 1127.5)">
        <rect id="base-20" data-name="base" width="24" height="24" transform="translate(0 -0.5)" fill="none"/>
        <g id="icon-check-8" data-name="icon-check" transform="translate(-55 -444.5)">
          <g id="base-21" data-name="base" transform="translate(57 446)" fill="#fff" stroke="#dbdbdb" stroke-width="1">
            <rect width="20" height="20" rx="4" stroke="none"/>
            <rect x="0.5" y="0.5" width="19" height="19" rx="3.5" fill="none"/>
          </g>
        </g>
      </g>
    </g>
    <g id="ic_24-2" data-name="ic_24" transform="translate(-38 4591)">
      <g id="ic-24-zoom_point_" data-name="ic-24-zoom(point)" transform="translate(-70 -3471)">
        <rect id="base-22" data-name="base" width="24" height="24" transform="translate(421 4598)" fill="none"/>
        <g id="icon-10" data-name="icon" transform="translate(424 4602)">
          <circle id="oval-3" data-name="oval" cx="6" cy="6" r="6" transform="translate(2 1)" fill="none" stroke="#0f62fe" stroke-linecap="round" stroke-linejoin="round" stroke-width="1.5"/>
          <line id="line" x1="4.262" y1="4.262" transform="translate(11.738 11.738)" fill="none" stroke="#0f62fe" stroke-linecap="round" stroke-linejoin="round" stroke-width="1.5"/>
        </g>
      </g>
      <g id="ic-24-zoom_gray_" data-name="ic-24-zoom(gray)" transform="translate(-94 -3471)">
        <rect id="base-23" data-name="base" width="24" height="24" transform="translate(421 4598)" fill="none"/>
        <g id="icon-11" data-name="icon" transform="translate(424 4602)">
          <circle id="oval-4" data-name="oval" cx="6" cy="6" r="6" transform="translate(2 1)" fill="none" stroke="#999" stroke-linecap="round" stroke-linejoin="round" stroke-width="1.5"/>
          <line id="line-2" data-name="line" x1="4.262" y1="4.262" transform="translate(11.738 11.738)" fill="none" stroke="#999" stroke-linecap="round" stroke-linejoin="round" stroke-width="1.5"/>
        </g>
      </g>
      <g id="ic-24-zoom_white_" data-name="ic-24-zoom(white)" transform="translate(-118 -3471)">
        <rect id="base-24" data-name="base" width="24" height="24" transform="translate(421 4598)" fill="none"/>
        <g id="icon-12" data-name="icon" transform="translate(424 4602)">
          <circle id="oval-5" data-name="oval" cx="6" cy="6" r="6" transform="translate(2 1)" fill="none" stroke="#fff" stroke-linecap="round" stroke-linejoin="round" stroke-width="1.5"/>
          <line id="line-3" data-name="line" x1="4.262" y1="4.262" transform="translate(11.738 11.738)" fill="none" stroke="#fff" stroke-linecap="round" stroke-linejoin="round" stroke-width="1.5"/>
        </g>
      </g>
    </g>
  </g>
</svg>
