<svg width="105" height="16" viewBox="0 0 105 16" fill="none" xmlns="http://www.w3.org/2000/svg">
<g clip-path="url(#clip0_1627_161957)">
<path fill-rule="evenodd" clip-rule="evenodd" d="M40.2884 5.29248H38.5826C38.5303 5.29248 38.4869 5.33596 38.4869 5.38851V10.005C38.4869 10.9761 37.8082 11.824 36.8641 12.0378C36.7161 12.0722 36.5627 12.0885 36.4111 12.0885C36.3804 12.0885 36.3497 12.0885 36.3172 12.0867C36.2883 12.0867 36.2648 12.0759 36.245 12.0559C36.2269 12.0378 36.2035 12.0287 36.1782 12.0287H35.9291C35.9201 12.0287 35.911 12.0288 35.902 12.0251C34.9868 11.7914 34.3352 10.9544 34.3352 10.0068V5.39032C34.3352 5.33778 34.2918 5.29429 34.2395 5.29429H32.5337C32.4813 5.29429 32.438 5.33778 32.438 5.39032V10.0068C32.438 11.8168 33.6709 13.413 35.4164 13.8677C35.4435 13.875 35.4634 13.8895 35.4796 13.9112C35.4977 13.9366 35.5265 13.9529 35.559 13.9529H35.8298C35.8298 13.9529 35.8406 13.9529 35.846 13.9529C36.0338 13.9801 36.2215 13.9927 36.4111 13.9927C36.6132 13.9927 36.8154 13.9764 37.0158 13.9456C38.9454 13.6467 40.3841 11.9635 40.3841 10.005V5.39032C40.3841 5.33778 40.3408 5.29429 40.2884 5.29429V5.29248Z" fill="#1A1818"/>
<path fill-rule="evenodd" clip-rule="evenodd" d="M104.904 5.29248H103.198C103.146 5.29248 103.103 5.33596 103.103 5.38851V10.005C103.103 10.9761 102.424 11.824 101.48 12.0378C101.332 12.0722 101.179 12.0885 101.027 12.0885C100.996 12.0885 100.966 12.0885 100.933 12.0867C100.904 12.0867 100.881 12.0759 100.861 12.0559C100.843 12.0378 100.819 12.0287 100.794 12.0287H100.545C100.536 12.0287 100.527 12.0288 100.518 12.0251C99.6027 11.7914 98.951 10.9544 98.951 10.0068V5.39032C98.951 5.33778 98.9077 5.29429 98.8553 5.29429H97.1495C97.0972 5.29429 97.0538 5.33778 97.0538 5.39032V10.0068C97.0538 11.8168 98.2867 13.413 100.032 13.8677C100.059 13.875 100.079 13.8895 100.095 13.9112C100.114 13.9366 100.142 13.9529 100.175 13.9529H100.446C100.446 13.9529 100.456 13.9529 100.462 13.9529C100.65 13.9801 100.837 13.9927 101.027 13.9927C101.229 13.9927 101.431 13.9764 101.632 13.9456C103.561 13.6467 105 11.9635 105 10.005V5.39032C105 5.33778 104.957 5.29429 104.904 5.29429V5.29248Z" fill="#1A1818"/>
<path fill-rule="evenodd" clip-rule="evenodd" d="M67.7081 4.69238C66.5853 4.69238 65.5203 5.17251 64.7675 6.00594C64.7459 6.02949 64.717 6.04217 64.6845 6.04217C64.652 6.04217 64.6231 6.02949 64.6015 6.00594C63.8487 5.17251 62.7819 4.69238 61.6609 4.69238C59.4749 4.69238 57.6879 6.48606 57.6879 8.68015V13.8963C57.6879 13.9489 57.7312 13.9923 57.7835 13.9923H59.4894C59.5417 13.9923 59.585 13.9489 59.585 13.8963V8.68015C59.585 7.5351 60.5201 6.59658 61.6609 6.59658C62.8018 6.59658 63.7368 7.5351 63.7368 8.68015V13.8963C63.7368 13.9489 63.7801 13.9923 63.8325 13.9923H65.5383C65.5907 13.9923 65.634 13.9489 65.634 13.8963V8.68015C65.634 7.5351 66.569 6.59658 67.7099 6.59658C68.8507 6.59658 69.7858 7.5351 69.7858 8.68015V13.8963C69.7858 13.9489 69.8291 13.9923 69.8814 13.9923H71.5873C71.6396 13.9923 71.6829 13.9489 71.6829 13.8963V8.68015C71.6829 6.48606 69.8959 4.69238 67.7099 4.69238H67.7081Z" fill="#1A1818"/>
<path d="M44.3336 2.00732H42.6278C42.5749 2.00732 42.5321 2.05032 42.5321 2.10335V13.8964C42.5321 13.9494 42.5749 13.9924 42.6278 13.9924H44.3336C44.3865 13.9924 44.4293 13.9494 44.4293 13.8964V2.10335C44.4293 2.05032 44.3865 2.00732 44.3336 2.00732Z" fill="#1A1818"/>
<path fill-rule="evenodd" clip-rule="evenodd" d="M30.2917 2.00732H28.5859C28.5335 2.00732 28.4902 2.05081 28.4902 2.10335V7.04775H22.0838V2.10335C22.0838 2.05081 22.0405 2.00732 21.9882 2.00732H20.2823C20.23 2.00732 20.1866 2.05081 20.1866 2.10335V13.8964C20.1866 13.9489 20.23 13.9924 20.2823 13.9924H21.9882C22.0405 13.9924 22.0838 13.9489 22.0838 13.8964V8.95195H28.4902V13.8964C28.4902 13.9489 28.5335 13.9924 28.5859 13.9924H30.2917C30.344 13.9924 30.3874 13.9489 30.3874 13.8964V2.10335C30.3874 2.05081 30.344 2.00732 30.2917 2.00732Z" fill="#1A1818"/>
<path fill-rule="evenodd" clip-rule="evenodd" d="M51.4188 4.57823C51.222 4.55467 51.0234 4.54199 50.8267 4.54199C50.6299 4.54199 50.4314 4.55467 50.2346 4.57823C47.841 4.87536 46.0449 6.9227 46.0449 9.34145C46.0449 11.7602 47.8428 13.8093 50.2346 14.1047C50.4314 14.1282 50.6281 14.1409 50.8267 14.1409C51.0252 14.1409 51.222 14.1282 51.4188 14.1047C51.8466 14.0521 52.2654 13.9416 52.6643 13.7749C52.7022 13.7586 52.7238 13.726 52.7238 13.6861V11.7276C52.7238 11.6895 52.7058 11.6587 52.6697 11.6406C52.6354 11.6243 52.5993 11.6261 52.5686 11.6497C52.1968 11.9323 51.7635 12.1207 51.3014 12.1968C51.1444 12.2222 50.9855 12.2367 50.8249 12.2367C50.6642 12.2367 50.5054 12.224 50.3483 12.1968L50.3086 12.1896C48.9367 11.9432 47.9403 10.7365 47.9403 9.33964C47.9403 7.94274 48.9602 6.71434 50.3501 6.48243C50.5072 6.45706 50.666 6.44257 50.8267 6.44257C50.9873 6.44257 51.1462 6.45525 51.3032 6.48243L51.3411 6.48787C52.713 6.73427 53.7131 7.94093 53.7131 9.33783V13.8909C53.7131 13.9434 53.7564 13.9869 53.8087 13.9869H55.5146C55.5669 13.9869 55.6102 13.9434 55.6102 13.8909V9.33783C55.6102 6.91907 53.8123 4.86993 51.4206 4.5746L51.4188 4.57823Z" fill="#1A1818"/>
<path d="M4.25285 0.298947C3.87378 0.112332 3.44055 0 3.01635 0C1.35023 0 0 1.35523 0 3.02752V12.9725C0 14.6448 1.35023 16 3.01635 16C4.68247 16 6.0327 14.6448 6.0327 12.9725V4.65451L9.65918 2.51659L4.25285 0.298947Z" fill="#2CA4FF"/>
<path d="M11.439 15.7011C11.8181 15.8877 12.2513 16 12.6755 16C14.3417 16 15.6919 14.6448 15.6919 12.9725V3.02752C15.6919 1.35523 14.3417 0 12.6755 0C11.0094 0 9.65919 1.35523 9.65919 3.02752V11.3455L6.03271 13.4834L11.439 15.7029V15.7011Z" fill="#407DE9"/>
<path d="M73.7625 9.52464C73.7625 6.80694 75.7481 4.81396 78.5641 4.81396C81.38 4.81396 83.3296 6.80694 83.3296 9.52464V10.1099C83.3296 10.137 83.3079 10.1588 83.2808 10.1588H75.6253C75.5946 10.1588 75.5712 10.1878 75.5766 10.2168C75.8492 11.7749 77.0297 12.6409 78.5641 12.6409C79.7085 12.6409 80.5172 12.2858 81.0407 11.5194C81.0497 11.5068 81.0641 11.4977 81.0804 11.4977H82.8765C82.9126 11.4977 82.9361 11.5339 82.9216 11.5665C82.2194 13.1935 80.6111 14.2335 78.5641 14.2335C75.7481 14.2335 73.7625 12.2405 73.7625 9.52283V9.52464ZM81.4613 8.61874C81.4938 8.61874 81.5172 8.58794 81.51 8.55714C81.149 7.16568 79.9883 6.40835 78.5659 6.40835C77.1434 6.40835 75.999 7.18199 75.6398 8.55714C75.6307 8.58794 75.656 8.61874 75.6885 8.61874H81.4649H81.4613Z" fill="#1A1818"/>
<path fill-rule="evenodd" clip-rule="evenodd" d="M90.7847 14.4072C90.588 14.4308 90.3894 14.4435 90.1926 14.4435C89.9959 14.4435 89.7973 14.4308 89.6006 14.4072C87.207 14.1101 85.4109 12.0627 85.4109 9.64399C85.4109 7.22524 87.2088 5.1761 89.6006 4.88077C89.7973 4.85722 89.9941 4.84454 90.1926 4.84454C90.3912 4.84454 90.588 4.85722 90.7847 4.88077C91.2125 4.93332 91.6313 5.04384 92.0302 5.21052C92.0682 5.22683 92.0898 5.25944 92.0898 5.2993V7.25785C92.0898 7.2959 92.0718 7.3267 92.0357 7.34482C92.0014 7.36113 91.9653 7.35932 91.9346 7.33576C91.5627 7.05312 91.1295 6.86469 90.6674 6.7886C90.5103 6.76323 90.3515 6.74874 90.1908 6.74874C90.0302 6.74874 89.8713 6.76142 89.7143 6.7886L89.6746 6.79585C88.3027 7.04225 87.3063 8.24891 87.3063 9.64581C87.3063 11.0427 88.3262 12.2711 89.7161 12.503C89.8731 12.5284 90.032 12.5429 90.1926 12.5429C90.3533 12.5429 90.5121 12.5302 90.6692 12.503L90.7071 12.4976C92.079 12.2512 93.079 11.0445 93.079 9.64762V2.10872C93.079 2.05618 93.1223 2.0127 93.1747 2.0127H94.8805C94.9329 2.0127 94.9762 2.05618 94.9762 2.10872V9.64218C94.9762 12.0609 93.1783 14.1101 90.7865 14.4054L90.7847 14.4072Z" fill="#1A1818"/>
</g>
<defs>
<clipPath id="clip0_1627_161957">
<rect width="105" height="16" fill="white"/>
</clipPath>
</defs>
</svg>
