<svg width="97" height="16" viewBox="0 0 97 16" fill="none" xmlns="http://www.w3.org/2000/svg">
<path fill-rule="evenodd" clip-rule="evenodd" d="M34.5427 13.3859C34.7236 13.4067 34.9045 13.4241 35.0871 13.4241C35.2819 13.4241 35.4768 13.4085 35.6698 13.3789C37.5294 13.0921 38.9157 11.4774 38.9157 9.59838V5.17123C38.9157 5.12082 38.874 5.0791 38.8235 5.0791H37.1797C37.1293 5.0791 37.0875 5.12082 37.0875 5.17123V9.60012C37.0875 10.5318 36.4335 11.3453 35.5237 11.5504C35.3811 11.5834 35.2332 11.599 35.0871 11.599C34.8575 11.599 34.5966 11.5382 34.5966 11.5382C33.7147 11.314 33.0867 10.5109 33.0867 9.60186V5.17123C33.0867 5.12082 33.045 5.0791 32.9945 5.0791H31.3507C31.3003 5.0791 31.2585 5.12082 31.2585 5.17123V9.60012C31.2585 11.3366 32.4466 12.8679 34.1287 13.3042C34.1287 13.3042 34.3461 13.365 34.5427 13.3876V13.3859Z" fill="url(#paint0_linear_1627_161979)"/>
<path fill-rule="evenodd" clip-rule="evenodd" d="M86.2772 4.47396C83.955 4.47396 81.9876 6.20519 81.7041 8.51003C81.6815 8.69949 81.6693 8.88895 81.6693 9.08015C81.6693 9.1097 81.6693 9.13925 81.6693 9.16706V13.3335C81.6693 13.3839 81.7111 13.4256 81.7615 13.4256H83.4053C83.4558 13.4256 83.4975 13.3839 83.4975 13.3335V9.17054C83.4975 9.14099 83.4975 9.11144 83.4975 9.08015C83.4975 8.92719 83.5097 8.77249 83.5358 8.62127C83.7584 7.28287 84.9221 6.30079 86.2789 6.30079H86.5781C86.6286 6.30079 86.6703 6.25907 86.6703 6.20867V4.56608C86.6703 4.51567 86.6286 4.47396 86.5781 4.47396H86.2772Z" fill="url(#paint1_linear_1627_161979)"/>
<path fill-rule="evenodd" clip-rule="evenodd" d="M92.629 4.39219C92.4394 4.36959 92.2498 4.35742 92.0585 4.35742C91.8671 4.35742 91.6775 4.36959 91.4879 4.39219C89.1814 4.67725 87.4506 6.6414 87.4506 8.96188C87.4506 11.2824 89.1831 13.2482 91.4879 13.5316C91.6775 13.5542 91.8671 13.5663 92.0585 13.5663C92.2498 13.5663 92.4394 13.5542 92.629 13.5316C94.9356 13.2465 96.6664 11.2824 96.6664 8.96188C96.6664 6.6414 94.9338 4.67551 92.629 4.39219ZM92.5177 11.703C92.3663 11.7273 92.2133 11.7412 92.0585 11.7412C91.9036 11.7412 91.7506 11.7291 91.5992 11.703L91.561 11.696C90.239 11.4596 89.2788 10.302 89.2788 8.96188C89.2788 7.62173 90.2616 6.44324 91.601 6.22076C91.7523 6.19642 91.9054 6.18252 92.0602 6.18252C92.215 6.18252 92.3681 6.19468 92.5194 6.22076L92.556 6.22597C93.878 6.46236 94.8416 7.62 94.8416 8.96014C94.8416 10.3003 93.8588 11.4788 92.5194 11.7013L92.5177 11.703Z" fill="url(#paint2_linear_1627_161979)"/>
<path fill-rule="evenodd" clip-rule="evenodd" d="M65.2464 4.50195C64.1645 4.50195 63.1382 4.96257 62.4128 5.76214C62.3919 5.78473 62.3641 5.7969 62.3328 5.7969C62.3015 5.7969 62.2736 5.78473 62.2528 5.76214C61.5274 4.96257 60.4994 4.50195 59.4191 4.50195C57.3126 4.50195 55.5905 6.22276 55.5905 8.3277V13.3319C55.5905 13.3823 55.6323 13.4241 55.6827 13.4241H57.3265C57.377 13.4241 57.4187 13.3823 57.4187 13.3319V8.3277C57.4187 7.22917 58.3198 6.32879 59.4191 6.32879C60.5185 6.32879 61.4196 7.22917 61.4196 8.3277V13.3319C61.4196 13.3823 61.4613 13.4241 61.5117 13.4241H63.1556C63.206 13.4241 63.2478 13.3823 63.2478 13.3319V8.3277C63.2478 7.22917 64.1488 6.32879 65.2482 6.32879C66.3475 6.32879 67.2486 7.22917 67.2486 8.3277V13.3319C67.2486 13.3823 67.2903 13.4241 67.3408 13.4241H68.9846C69.035 13.4241 69.0768 13.3823 69.0768 13.3319V8.3277C69.0768 6.22276 67.3547 4.50195 65.2482 4.50195H65.2464Z" fill="url(#paint3_linear_1627_161979)"/>
<path d="M42.7217 1.92578H41.0779C41.027 1.92578 40.9857 1.96703 40.9857 2.01791V13.3318C40.9857 13.3826 41.027 13.4239 41.0779 13.4239H42.7217C42.7726 13.4239 42.8139 13.3826 42.8139 13.3318V2.01791C42.8139 1.96703 42.7726 1.92578 42.7217 1.92578Z" fill="url(#paint4_linear_1627_161979)"/>
<path fill-rule="evenodd" clip-rule="evenodd" d="M29.1902 1.92578H27.5463C27.4959 1.92578 27.4541 1.9675 27.4541 2.01791V6.76141H21.2807V2.01791C21.2807 1.9675 21.239 1.92578 21.1885 1.92578H19.5447C19.4943 1.92578 19.4525 1.9675 19.4525 2.01791V13.3318C19.4525 13.3822 19.4943 13.4239 19.5447 13.4239H21.1885C21.239 13.4239 21.2807 13.3822 21.2807 13.3318V8.58825H27.4541V13.3318C27.4541 13.3822 27.4959 13.4239 27.5463 13.4239H29.1902C29.2406 13.4239 29.2823 13.3822 29.2823 13.3318V2.01791C29.2823 1.9675 29.2406 1.92578 29.1902 1.92578Z" fill="url(#paint5_linear_1627_161979)"/>
<path fill-rule="evenodd" clip-rule="evenodd" d="M76.2729 4.39219C76.0833 4.36959 75.8937 4.35742 75.7023 4.35742C75.511 4.35742 75.3214 4.36959 75.1318 4.39219C72.8252 4.67725 71.0944 6.6414 71.0944 8.96188V15.9059C71.0944 15.9563 71.1362 15.9981 71.1866 15.9981H72.8305C72.8809 15.9981 72.9226 15.9563 72.9226 15.9059V8.96361C72.9226 7.60783 73.9055 6.44498 75.2449 6.22249C75.3962 6.19816 75.5493 6.18426 75.7041 6.18426C75.8589 6.18426 76.012 6.19642 76.1633 6.22249L76.1998 6.22771C77.5218 6.4641 78.4855 7.62173 78.4855 8.96188C78.4855 10.302 77.5027 11.4805 76.1633 11.703C76.012 11.7273 75.8589 11.7412 75.7041 11.7412C75.5493 11.7412 75.3962 11.7291 75.2449 11.703L75.2066 11.696C74.7769 11.6196 74.3716 11.4405 74.0255 11.1763C73.9959 11.1537 73.9611 11.1503 73.9281 11.1676C73.895 11.1833 73.8759 11.2128 73.8759 11.2511V13.13C73.8759 13.17 73.8968 13.2013 73.9333 13.2152C74.3177 13.3751 74.7213 13.4812 75.1335 13.5316C75.3231 13.5542 75.5127 13.5663 75.7041 13.5663C75.8954 13.5663 76.085 13.5542 76.2746 13.5316C78.5812 13.2465 80.312 11.2824 80.312 8.96188C80.312 6.6414 78.5794 4.67551 76.2746 4.39219H76.2729Z" fill="url(#paint6_linear_1627_161979)"/>
<path fill-rule="evenodd" clip-rule="evenodd" d="M49.5489 4.39219C49.3593 4.36959 49.168 4.35742 48.9784 4.35742C48.7888 4.35742 48.5974 4.36959 48.4078 4.39219C46.1013 4.67725 44.3705 6.6414 44.3705 8.96188C44.3705 11.2824 46.103 13.2482 48.4078 13.5316C48.5974 13.5542 48.787 13.5663 48.9784 13.5663C49.1697 13.5663 49.3593 13.5542 49.5489 13.5316C49.9612 13.4812 50.3647 13.3751 50.7492 13.2152C50.7857 13.1996 50.8066 13.1683 50.8066 13.13V11.2511C50.8066 11.2146 50.7892 11.185 50.7544 11.1676C50.7213 11.152 50.6866 11.1537 50.657 11.1763C50.2986 11.4475 49.8812 11.6283 49.4359 11.7013C49.2845 11.7256 49.1315 11.7395 48.9766 11.7395C48.8218 11.7395 48.6688 11.7273 48.5174 11.7013L48.4791 11.6943C47.1571 11.4579 46.1969 10.3003 46.1969 8.96014C46.1969 7.62 47.1798 6.44151 48.5192 6.21902C48.6705 6.19468 48.8236 6.18078 48.9784 6.18078C49.1332 6.18078 49.2863 6.19295 49.4376 6.21902L49.4741 6.22423C50.7961 6.46063 51.7598 7.61826 51.7598 8.9584V13.3265C51.7598 13.3769 51.8016 13.4186 51.852 13.4186H53.4958C53.5463 13.4186 53.588 13.3769 53.588 13.3265V8.9584C53.588 6.63792 51.8555 4.67203 49.5507 4.38871L49.5489 4.39219Z" fill="url(#paint7_linear_1627_161979)"/>
<path d="M4.09823 0.286801C3.73293 0.107768 3.31546 0 2.90668 0C1.30113 0 0 1.30016 0 2.90451V12.4454C0 14.0498 1.30113 15.3499 2.90668 15.3499C4.51222 15.3499 5.81336 14.0498 5.81336 12.4454V4.4654L9.30798 2.41434L4.09823 0.286801Z" fill="url(#paint8_linear_1627_161979)"/>
<path d="M11.0236 15.0631C11.3889 15.2422 11.8063 15.3499 12.2151 15.3499C13.8207 15.3499 15.1218 14.0498 15.1218 12.4454V2.90451C15.1218 1.30016 13.8207 0 12.2151 0C10.6096 0 9.30843 1.30016 9.30843 2.90451V10.8845L5.8138 12.9356L11.0236 15.0649V15.0631Z" fill="url(#paint9_linear_1627_161979)"/>
<defs>
<linearGradient id="paint0_linear_1627_161979" x1="19.4525" y1="1.92578" x2="25.0663" y2="29.4078" gradientUnits="userSpaceOnUse">
<stop stop-color="#3478D1"/>
<stop offset="1" stop-color="#A67BED"/>
</linearGradient>
<linearGradient id="paint1_linear_1627_161979" x1="19.4525" y1="1.92578" x2="25.0663" y2="29.4078" gradientUnits="userSpaceOnUse">
<stop stop-color="#3478D1"/>
<stop offset="1" stop-color="#A67BED"/>
</linearGradient>
<linearGradient id="paint2_linear_1627_161979" x1="19.4525" y1="1.92578" x2="25.0663" y2="29.4078" gradientUnits="userSpaceOnUse">
<stop stop-color="#3478D1"/>
<stop offset="1" stop-color="#A67BED"/>
</linearGradient>
<linearGradient id="paint3_linear_1627_161979" x1="19.4525" y1="1.92578" x2="25.0663" y2="29.4078" gradientUnits="userSpaceOnUse">
<stop stop-color="#3478D1"/>
<stop offset="1" stop-color="#A67BED"/>
</linearGradient>
<linearGradient id="paint4_linear_1627_161979" x1="19.4525" y1="1.92578" x2="25.0663" y2="29.4078" gradientUnits="userSpaceOnUse">
<stop stop-color="#3478D1"/>
<stop offset="1" stop-color="#A67BED"/>
</linearGradient>
<linearGradient id="paint5_linear_1627_161979" x1="19.4525" y1="1.92578" x2="25.0663" y2="29.4078" gradientUnits="userSpaceOnUse">
<stop stop-color="#3478D1"/>
<stop offset="1" stop-color="#A67BED"/>
</linearGradient>
<linearGradient id="paint6_linear_1627_161979" x1="19.4525" y1="1.92578" x2="25.0663" y2="29.4078" gradientUnits="userSpaceOnUse">
<stop stop-color="#3478D1"/>
<stop offset="1" stop-color="#A67BED"/>
</linearGradient>
<linearGradient id="paint7_linear_1627_161979" x1="19.4525" y1="1.92578" x2="25.0663" y2="29.4078" gradientUnits="userSpaceOnUse">
<stop stop-color="#3478D1"/>
<stop offset="1" stop-color="#A67BED"/>
</linearGradient>
<linearGradient id="paint8_linear_1627_161979" x1="0" y1="0" x2="15.4849" y2="13.6102" gradientUnits="userSpaceOnUse">
<stop stop-color="#3478D1"/>
<stop offset="1" stop-color="#A67BED"/>
</linearGradient>
<linearGradient id="paint9_linear_1627_161979" x1="0" y1="0" x2="15.4849" y2="13.6102" gradientUnits="userSpaceOnUse">
<stop stop-color="#3478D1"/>
<stop offset="1" stop-color="#A67BED"/>
</linearGradient>
</defs>
</svg>
