<svg width="415" height="96" viewBox="0 0 415 96" fill="none" xmlns="http://www.w3.org/2000/svg">
<path fill-rule="evenodd" clip-rule="evenodd" d="M207.256 80.3154C208.341 80.4405 209.427 80.5448 210.522 80.5448C211.691 80.5448 212.86 80.4509 214.019 80.2736C225.176 78.5528 233.494 68.8642 233.494 57.5903V31.0274C233.494 30.7249 233.244 30.4746 232.941 30.4746H223.078C222.775 30.4746 222.525 30.7249 222.525 31.0274V57.6007C222.525 63.1907 218.601 68.0716 213.142 69.3022C212.286 69.5004 211.399 69.5942 210.522 69.5942C209.145 69.5942 207.579 69.2292 207.579 69.2292C202.288 67.8838 198.52 63.0656 198.52 57.6112V31.0274C198.52 30.7249 198.269 30.4746 197.967 30.4746H188.104C187.801 30.4746 187.551 30.7249 187.551 31.0274V57.6007C187.551 68.0194 194.679 77.2075 204.772 79.8252C204.772 79.8252 206.076 80.1902 207.256 80.3258V80.3154Z" fill="#407DE9"/>
<path fill-rule="evenodd" clip-rule="evenodd" d="M391.478 27.0117C384.987 27.0117 378.829 29.7754 374.477 34.5728C374.351 34.7084 374.184 34.7814 373.996 34.7814C373.809 34.7814 373.642 34.7084 373.516 34.5728C369.164 29.7754 362.996 27.0117 356.515 27.0117C343.876 27.0117 333.543 37.3365 333.543 49.9662V79.9916C333.543 80.2941 333.793 80.5444 334.096 80.5444H343.959C344.262 80.5444 344.512 80.2941 344.512 79.9916V49.9662C344.512 43.375 349.918 37.9727 356.515 37.9727C363.111 37.9727 368.517 43.375 368.517 49.9662V79.9916C368.517 80.2941 368.768 80.5444 369.07 80.5444H378.933C379.236 80.5444 379.486 80.2941 379.486 79.9916V49.9662C379.486 43.375 384.893 37.9727 391.489 37.9727C398.085 37.9727 403.491 43.375 403.491 49.9662V79.9916C403.491 80.2941 403.742 80.5444 404.044 80.5444H413.907C414.21 80.5444 414.46 80.2941 414.46 79.9916V49.9662C414.46 37.3365 404.128 27.0117 391.489 27.0117H391.478Z" fill="#407DE9"/>
<path d="M256.33 11.5547H246.467C246.162 11.5547 245.914 11.8022 245.914 12.1074V79.9905C245.914 80.2958 246.162 80.5433 246.467 80.5433H256.33C256.636 80.5433 256.883 80.2958 256.883 79.9905V12.1074C256.883 11.8022 256.636 11.5547 256.33 11.5547Z" fill="#407DE9"/>
<path fill-rule="evenodd" clip-rule="evenodd" d="M175.141 11.5547H165.278C164.975 11.5547 164.725 11.805 164.725 12.1074V40.5685H127.684V12.1074C127.684 11.805 127.434 11.5547 127.131 11.5547H117.268C116.965 11.5547 116.715 11.805 116.715 12.1074V79.9905C116.715 80.293 116.965 80.5433 117.268 80.5433H127.131C127.434 80.5433 127.684 80.293 127.684 79.9905V51.5295H164.725V79.9905C164.725 80.293 164.975 80.5433 165.278 80.5433H175.141C175.443 80.5433 175.694 80.293 175.694 79.9905V12.1074C175.694 11.805 175.443 11.5547 175.141 11.5547Z" fill="#407DE9"/>
<path fill-rule="evenodd" clip-rule="evenodd" d="M297.293 26.3531C296.156 26.2175 295.008 26.1445 293.87 26.1445C292.732 26.1445 291.584 26.2175 290.447 26.3531C276.607 28.0635 266.223 39.8484 266.223 53.7713C266.223 67.6941 276.618 79.4894 290.447 81.1894C291.584 81.325 292.722 81.398 293.87 81.398C295.018 81.398 296.156 81.325 297.293 81.1894C299.767 80.887 302.188 80.2508 304.495 79.2913C304.714 79.1974 304.839 79.0097 304.839 78.7803V67.5064C304.839 67.2874 304.735 67.1101 304.526 67.0058C304.328 66.9119 304.119 66.9224 303.942 67.0579C301.792 68.6849 299.287 69.7695 296.615 70.2075C295.707 70.3535 294.788 70.437 293.86 70.437C292.931 70.437 292.012 70.364 291.104 70.2075L290.875 70.1658C282.943 68.7475 277.181 61.8017 277.181 53.7608C277.181 45.72 283.078 38.649 291.115 37.3141C292.023 37.1681 292.941 37.0847 293.87 37.0847C294.799 37.0847 295.717 37.1577 296.625 37.3141L296.845 37.3454C304.777 38.7638 310.559 45.7096 310.559 53.7504V79.9588C310.559 80.2612 310.809 80.5115 311.112 80.5115H320.975C321.277 80.5115 321.528 80.2612 321.528 79.9588V53.7504C321.528 39.8275 311.133 28.0322 297.304 26.3323L297.293 26.3531Z" fill="#407DE9"/>
<path d="M24.5894 1.7208C22.3976 0.646605 19.8927 0 17.4401 0C7.80681 0 0 7.80098 0 17.427V74.6725C0 84.2985 7.80681 92.0995 17.4401 92.0995C27.0733 92.0995 34.8802 84.2985 34.8802 74.6725V26.7924L55.8479 14.486L24.5894 1.7208Z" fill="#2CA4FF"/>
<path d="M66.1414 90.3787C68.3331 91.4529 70.838 92.0995 73.2906 92.0995C82.9239 92.0995 90.7307 84.2985 90.7307 74.6725V17.427C90.7307 7.80098 82.9239 0 73.2906 0C63.6574 0 55.8506 7.80098 55.8506 17.427V65.3071L34.8828 77.6135L66.1414 90.3891V90.3787Z" fill="#407DE9"/>
</svg>
