<svg width="241" height="120" viewBox="0 0 241 120" fill="none" xmlns="http://www.w3.org/2000/svg">
<g clip-path="url(#clip0_682_81624)">
<g clip-path="url(#clip1_682_81624)">
<path d="M133.764 47.0938C133.329 47.0938 133.154 47.3305 133.142 47.5673C133.129 47.8414 133.285 48.047 133.746 48.1966C134.131 48.3212 134.393 48.6327 134.393 49.3928V72.3523H137.156V47.1H133.764V47.0938ZM117.053 48.8632C116.58 48.8632 116.394 49.1124 116.387 49.3367C116.375 49.6171 116.537 49.8227 117.035 49.9723C117.439 50.1031 117.725 50.4084 117.725 51.1685V60.7885C117.725 62.2277 118.049 63.5174 120.022 63.5174H129.258V48.8757L126.912 48.8632H117.047H117.053ZM126.513 61.3804H120.433V51.0003H126.513V61.3866V61.3804Z" fill="#1A1A1A"/>
<path d="M155.057 53.9161C155.057 50.1591 152.094 47.8226 148.453 47.8226C144.813 47.8226 141.844 50.1591 141.844 53.9161C141.844 57.6731 144.8 60.0158 148.453 60.0158C152.107 60.0158 155.057 57.6793 155.057 53.9161ZM144.694 53.9161C144.694 51.212 146.375 49.8226 148.447 49.8226C150.52 49.8226 152.2 51.212 152.2 53.9161C152.2 56.6201 150.514 58.0158 148.447 58.0158C146.381 58.0158 144.694 56.6264 144.694 53.9161ZM165.78 52.4706V50.3647H161.866V47.0625H158.48C158.032 47.0625 157.864 47.2993 157.851 47.5298C157.845 47.8039 157.995 48.0158 158.461 48.1653C158.841 48.2961 159.109 48.6014 159.109 49.3616V61.3927H161.872V57.0189H165.787V54.9067H161.872V52.4706H165.787H165.78ZM154.814 61.3553C150.688 61.3553 147.352 63.5796 147.352 67.1622C147.352 70.7447 150.688 72.9753 154.814 72.9753C158.941 72.9753 162.27 70.751 162.27 67.1622C162.27 63.5734 158.934 61.3553 154.814 61.3553ZM154.814 70.9877C152.35 70.9877 150.352 69.6918 150.352 67.1622C150.352 64.6326 152.35 63.3429 154.814 63.3429C157.279 63.3429 159.277 64.6388 159.277 67.1622C159.277 69.6855 157.279 70.9877 154.814 70.9877Z" fill="#1A1A1A"/>
<path d="M188.895 47.0371C188.453 47.0371 188.279 47.2801 188.266 47.5044C188.254 47.7785 188.409 47.9904 188.876 48.1399C189.256 48.2708 189.523 48.5761 189.523 49.3362V53.2739H186.947V47.0371H183.897C183.455 47.0371 183.281 47.2739 183.275 47.5044C183.262 47.7785 183.418 47.9904 183.879 48.1399C184.258 48.2708 184.526 48.5761 184.526 49.3362V60.5885H186.947V55.386H189.523V60.5885H191.938V47.0371H188.895ZM182.161 56.2022C182.161 54.5823 181.495 53.3486 180.424 52.5137H182.827V50.4078H177.499V47.1181H173.995C173.553 47.1181 173.379 47.3611 173.367 47.5854C173.354 47.8595 173.51 48.0651 173.976 48.2209C174.356 48.3518 174.624 48.6508 174.624 49.4234V50.4078H169.309V52.5137H171.997C170.927 53.3424 170.267 54.576 170.267 56.2022C170.267 59.4483 172.931 61.7412 176.211 61.7412C179.491 61.7412 182.155 59.4483 182.155 56.2022M176.211 59.8035C174.512 59.8035 173.136 58.4016 173.136 56.2022C173.136 54.0028 174.512 52.6134 176.211 52.6134C177.91 52.6134 179.285 54.0028 179.285 56.2022C179.285 58.4016 177.91 59.8035 176.211 59.8035ZM184.047 61.3299C179.926 61.3299 176.584 63.5542 176.584 67.1368C176.584 70.7193 179.92 72.9499 184.047 72.9499C188.173 72.9499 191.509 70.7256 191.509 67.1368C191.509 63.548 188.173 61.3299 184.047 61.3299ZM184.047 70.9623C181.582 70.9623 179.584 69.6664 179.584 67.1368C179.584 64.6072 181.582 63.3175 184.047 63.3175C186.511 63.3175 188.509 64.6134 188.509 67.1368C188.509 69.6602 186.511 70.9623 184.047 70.9623Z" fill="#1A1A1A"/>
<path d="M102.051 56.2647C102.051 54.6074 101.372 53.3488 100.277 52.4952H103.849V50.3831H97.252V47.0996H93.748C93.2999 47.0996 93.1318 47.3364 93.1194 47.5669C93.107 47.841 93.2563 48.0466 93.7231 48.1962C94.1028 48.3208 94.3704 48.6323 94.3704 49.3924V50.3769H88.0781V52.489H91.6444C90.549 53.3426 89.8706 54.6074 89.8706 56.2585C89.8706 59.5856 92.6028 61.9345 95.9637 61.9345C99.3245 61.9345 102.051 59.5918 102.051 56.2585M92.746 56.2585C92.746 53.9719 94.1899 52.5139 95.9637 52.5139C97.7375 52.5139 99.1689 53.9719 99.1689 56.2585C99.1689 58.5451 97.7312 60.0093 95.9637 60.0093C94.1961 60.0093 92.746 58.5638 92.746 56.2585ZM109.345 53.2741V47.0996H105.953C105.511 47.0996 105.337 47.3364 105.33 47.5669C105.324 47.841 105.467 48.0466 105.94 48.1962C106.32 48.3208 106.581 48.6323 106.581 49.3924V65.2367H109.345V55.38H113.26V53.2741H109.345ZM96.7977 63.9532H93.4119C92.97 63.9532 92.7958 64.1962 92.7833 64.4267C92.7771 64.7009 92.9265 64.9127 93.387 65.0622C93.7729 65.1868 94.0405 65.4921 94.0405 66.2585L94.0779 69.3675C94.0779 70.8005 94.4451 72.0965 96.6296 72.0965L109.973 72.0716V69.9594H96.7914V63.9594L96.7977 63.9532Z" fill="#1A1A1A"/>
<mask id="mask0_682_81624" style="mask-type:luminance" maskUnits="userSpaceOnUse" x="65" y="45" width="16" height="30">
<path d="M80.4533 45H65.4727V75H80.4533V45Z" fill="white"/>
</mask>
<g mask="url(#mask0_682_81624)">
<path d="M80.4533 45H65.4727V75H80.4533V45Z" fill="url(#paint0_linear_682_81624)"/>
</g>
<path d="M62.926 68.8878C62.926 68.8878 62.8513 65.1745 63.5919 63.4112C64.8554 60.4019 67.4507 58.433 70.4194 57.7227C71.6518 57.4299 78.0996 56.2212 79.3133 49.729C79.3133 49.729 78.0436 51.4237 74.9068 51.3988C67.2764 51.3302 66.8221 55.7601 66.7661 57.0685C66.7661 57.0685 69.4859 53.8224 75.4607 53.405C75.4607 53.405 67.8926 54.7259 64.1521 60.9564C63.6044 61.8224 63.0754 62.9751 62.9322 63.7664V45H47.9453V75H62.9322V71.3988C62.9322 69.5296 62.1978 67.6355 61.2331 66.5888C60.3244 65.6106 59.0486 65.3302 57.53 64.8442C54.611 63.891 50.3228 63.2056 49.2336 56.6573C49.2336 56.6573 49.9805 58.1277 53.4471 58.2586C62.0111 58.5763 62.2912 64.5016 62.4841 66.0841C62.4841 66.0841 60.4365 60.8442 53.6214 60.433C53.6214 60.433 60.0506 61.8972 62.1916 66.8941C62.5028 67.6168 62.8264 68.595 62.9198 68.8878" fill="#003DA6"/>
</g>
</g>
<defs>
<linearGradient id="paint0_linear_682_81624" x1="76.7626" y1="43.3386" x2="76.7626" y2="73.3386" gradientUnits="userSpaceOnUse">
<stop stop-color="#BFD62E"/>
<stop offset="0.25" stop-color="#80C94E"/>
<stop offset="0.51" stop-color="#49BD6B"/>
<stop offset="0.72" stop-color="#21B57F"/>
<stop offset="0.9" stop-color="#08B08C"/>
<stop offset="1" stop-color="#00AF91"/>
</linearGradient>
<clipPath id="clip0_682_81624">
<rect width="240" height="120" fill="white" transform="translate(0.0273438)"/>
</clipPath>
<clipPath id="clip1_682_81624">
<rect width="144" height="30" fill="white" transform="translate(47.9453 45)"/>
</clipPath>
</defs>
</svg>
