<svg width="241" height="120" viewBox="0 0 241 120" fill="none" xmlns="http://www.w3.org/2000/svg">
<g clip-path="url(#clip0_682_81504)">
<g clip-path="url(#clip1_682_81504)">
<path d="M117.795 46.5508V74.9508H113.384V72.0268C112.572 73.1422 111.495 74.0405 110.249 74.6415C109.003 75.2425 107.626 75.5274 106.242 75.4708C104.869 75.4366 103.516 75.1333 102.261 74.5781C101.006 74.023 99.8736 73.2271 98.929 72.236C97.9844 71.2449 97.2461 70.0782 96.7564 68.8029C96.2668 67.5275 96.0354 66.1686 96.0755 64.8041C96.032 63.4388 96.261 62.0784 96.7494 60.8016C97.2379 59.5247 97.976 58.3567 98.9213 57.3649C99.8665 56.3731 101 55.5773 102.257 55.0233C103.513 54.4694 104.868 54.1683 106.242 54.1374C107.622 54.083 108.995 54.365 110.24 54.9588C111.485 55.5526 112.566 56.4402 113.387 57.5441V46.5508H117.795ZM113.384 64.8041C113.384 63.1043 112.704 61.474 111.495 60.272C110.285 59.07 108.645 58.3948 106.934 58.3948C105.224 58.3948 103.583 59.07 102.374 60.272C101.164 61.474 100.484 63.1043 100.484 64.8041C100.484 66.504 101.164 68.1342 102.374 69.3362C103.583 70.5382 105.224 71.2134 106.934 71.2134C108.645 71.2134 110.285 70.5382 111.495 69.3362C112.704 68.1342 113.384 66.504 113.384 64.8041Z" fill="#002659"/>
<path d="M132.248 54.2987V59.0454C129.35 58.8414 125.962 60.1814 125.962 64.724V74.948H121.555V54.6654H125.962V58.072C126.496 56.88 127.385 55.8792 128.509 55.2045C129.633 54.5299 130.938 54.2137 132.248 54.2987Z" fill="#002659"/>
<path d="M133.516 48.8254C133.516 48.2716 133.681 47.7303 133.99 47.2698C134.3 46.8093 134.74 46.4505 135.255 46.2385C135.77 46.0266 136.336 45.9712 136.883 46.0792C137.43 46.1872 137.932 46.4539 138.326 46.8455C138.72 47.2371 138.988 47.736 139.097 48.2791C139.205 48.8223 139.15 49.3853 138.936 49.8969C138.723 50.4085 138.362 50.8458 137.899 51.1535C137.435 51.4612 136.891 51.6254 136.333 51.6254C135.963 51.6254 135.597 51.553 135.255 51.4123C134.913 51.2715 134.603 51.0653 134.341 50.8053C134.079 50.5453 133.872 50.2366 133.73 49.8969C133.589 49.5572 133.516 49.1931 133.516 48.8254ZM134.126 54.6667H138.534V74.9494H134.126V54.6667Z" fill="#002659"/>
<path d="M152.252 71.4586C153.27 71.4991 154.282 71.2911 155.2 70.8527C156.118 70.4143 156.914 69.7589 157.517 68.9439L161.151 71.0533C160.16 72.4824 158.819 73.6379 157.255 74.4113C155.692 75.1847 153.956 75.5505 152.211 75.4746C145.475 75.4746 141.107 70.8906 141.107 64.8079C141.062 63.3915 141.31 61.981 141.837 60.6639C142.363 59.3468 143.156 58.1511 144.166 57.151C145.177 56.151 146.383 55.3678 147.71 54.8501C149.038 54.3323 150.458 54.0911 151.883 54.1413C157.967 54.1413 162.13 59.0093 162.13 64.8506C162.119 65.4621 162.064 66.072 161.967 66.6759H145.72C146.413 69.8359 148.983 71.4586 152.252 71.4586ZM157.681 63.1013C157.517 61.6931 156.825 60.398 155.744 59.4735C154.662 58.5491 153.27 58.063 151.845 58.1119C150.378 58.0375 148.935 58.5065 147.797 59.4283C146.658 60.35 145.904 61.6588 145.681 63.1013H157.681Z" fill="#002659"/>
<path d="M164.621 45.334H169.029V74.9473H164.621V45.334Z" fill="#002659"/>
<path d="M85.0133 46.6113L95.3621 74.9473H90.2635L80.2891 46.6113H85.0133Z" fill="#002659"/>
<path d="M75.6493 74.9469H71.0298C70.9732 71.7268 71.9109 68.5668 73.7166 65.8923C75.5222 63.2178 78.1091 61.1573 81.129 59.9883L82.845 64.2549C80.6769 65.0739 78.8191 66.5434 77.5296 68.4595C76.2401 70.3755 75.583 72.6429 75.6493 74.9469Z" fill="#002659"/>
</g>
</g>
<defs>
<clipPath id="clip0_682_81504">
<rect width="240" height="120" fill="white" transform="translate(0.0273438)"/>
</clipPath>
<clipPath id="clip1_682_81504">
<rect width="98" height="40" fill="white" transform="translate(71.0273 40)"/>
</clipPath>
</defs>
</svg>
