<svg xmlns="http://www.w3.org/2000/svg" width="24" height="24" viewBox="0 0 24 24">
  <g id="ico_24_unlock" transform="translate(-236 -252)">
    <path id="base" d="M0,0H24V24H0Z" transform="translate(260 276) rotate(180)" fill="none" opacity="0"/>
    <path id="path" d="M15,12H5c-4,0-5-1-5-5V5C0,1,1,0,5,0H15c4,0,5,1,5,5V7C20,11,19,12,15,12Z" transform="translate(238 262)" fill="none" stroke="#1f1f1f" stroke-linecap="round" stroke-linejoin="round" stroke-width="1.5"/>
    <path id="path-2" data-name="path" d="M0,8V6C0,2.69,1,0,6,0c4.5,0,6,2,6,5" transform="translate(242 254)" fill="none" stroke="#1f1f1f" stroke-linecap="round" stroke-linejoin="round" stroke-width="1.5"/>
  </g>
</svg>
