<svg xmlns="http://www.w3.org/2000/svg" width="24" height="24" viewBox="0 0 24 24">
  <g id="ico_24_camera" transform="translate(-364 -320)">
    <path id="base" d="M0,0H24V24H0Z" transform="translate(364 320)" fill="none" opacity="0"/>
    <path id="path" d="M4,20h11.52a3.636,3.636,0,0,0,3.99-3.75V7.99A3.753,3.753,0,0,0,15.758,4a1.643,1.643,0,0,1-1.45-.89l-.72-1.45A3.3,3.3,0,0,0,10.908,0H8.618a3.3,3.3,0,0,0-2.69,1.66l-.72,1.45A1.643,1.643,0,0,1,3.758,4,3.753,3.753,0,0,0,.008,7.99v8.26A3.631,3.631,0,0,0,4,20Z" transform="translate(366.242 322)" fill="none" stroke="#1f1f1f" stroke-linecap="round" stroke-linejoin="round" stroke-width="1.5"/>
    <path id="path-2" data-name="path" d="M0,0H3" transform="translate(374.5 328)" fill="none" stroke="#1f1f1f" stroke-linecap="round" stroke-linejoin="round" stroke-width="1.5"/>
    <path id="path-3" data-name="path" d="M3.25,6.5A3.25,3.25,0,1,0,0,3.25,3.256,3.256,0,0,0,3.25,6.5Z" transform="translate(372.75 331.5)" fill="none" stroke="#1f1f1f" stroke-linecap="round" stroke-linejoin="round" stroke-width="1.5"/>
  </g>
</svg>
