<svg xmlns="http://www.w3.org/2000/svg" width="24" height="24" viewBox="0 0 24 24">
  <g id="ico_24_filter" transform="translate(-556 -508)">
    <path id="base" d="M0,0H24V24H0Z" transform="translate(556 508)" fill="none" opacity="0"/>
    <path id="path" d="M2,0H15.2a2.006,2.006,0,0,1,2,2V4.2a3.733,3.733,0,0,1-1,2.3l-4.3,3.8a3.255,3.255,0,0,0-1,2.3v4.3a2.227,2.227,0,0,1-.9,1.7l-1.4.9a2.038,2.038,0,0,1-3.1-1.7V12.5a3.865,3.865,0,0,0-.8-2.1L.9,6.4a3.315,3.315,0,0,1-.9-2V2.1A2.03,2.03,0,0,1,2,0Z" transform="translate(559.4 510.1)" fill="none" stroke="#1f1f1f" stroke-linecap="round" stroke-linejoin="round" stroke-width="1.5"/>
  </g>
</svg>
