<svg xmlns="http://www.w3.org/2000/svg" width="24" height="24" viewBox="0 0 24 24">
  <g id="ico_24_box02" transform="translate(-556 -188)">
    <path id="base" d="M0,0H24V24H0Z" transform="translate(556 188)" fill="none" opacity="0"/>
    <path id="path" d="M0,0,8.83,5.11,17.6.03" transform="translate(559.17 195.44)" fill="none" stroke="#1f1f1f" stroke-linecap="round" stroke-linejoin="round" stroke-width="1.5"/>
    <path id="path-2" data-name="path" d="M0,9.07V0" transform="translate(568 200.54)" fill="none" stroke="#1f1f1f" stroke-linecap="round" stroke-linejoin="round" stroke-width="1.5"/>
    <path id="path-3" data-name="path" d="M7.54.48,2.2,3.45A4.719,4.719,0,0,0,0,7.18v5.65a4.719,4.719,0,0,0,2.2,3.73l5.34,2.97a4.792,4.792,0,0,0,4.15,0l5.34-2.97a4.719,4.719,0,0,0,2.2-3.73V7.18a4.719,4.719,0,0,0-2.2-3.73L11.69.48A4.725,4.725,0,0,0,7.54.48Z" transform="translate(558.39 190)" fill="none" stroke="#1f1f1f" stroke-linecap="round" stroke-linejoin="round" stroke-width="1.5"/>
    <path id="path-4" data-name="path" d="M9.49,9.14V5.48L0,0" transform="translate(563.51 192.1)" fill="none" stroke="#1f1f1f" stroke-linecap="round" stroke-linejoin="round" stroke-width="1.5"/>
  </g>
</svg>
