<svg xmlns="http://www.w3.org/2000/svg" width="24" height="24" viewBox="0 0 24 24">
  <g id="ico_24_barcode" transform="translate(-236 -252)">
    <path id="base" d="M0,0H24V24H0Z" transform="translate(236 252)" fill="none" opacity="0"/>
    <path id="path" d="M15,17H5c-3,0-5-1.5-5-5V5C0,1.5,2,0,5,0H15c3,0,5,1.5,5,5v7C20,15.5,18,17,15,17Z" transform="translate(238 255.5)" fill="none" stroke="#1f1f1f" stroke-linecap="round" stroke-linejoin="round" stroke-width="1.5"/>
    <path id="path-2" data-name="path" d="M0,0V8" transform="translate(242 260)" fill="none" stroke="#1f1f1f" stroke-linecap="round" stroke-linejoin="round" stroke-width="1.5"/>
    <path id="path-3" data-name="path" d="M0,0V4" transform="translate(245 260)" fill="none" stroke="#1f1f1f" stroke-linecap="round" stroke-linejoin="round" stroke-width="1.5"/>
    <path id="path-4" data-name="path" d="M0,0V1" transform="translate(245 267)" fill="none" stroke="#1f1f1f" stroke-linecap="round" stroke-linejoin="round" stroke-width="1.5"/>
    <path id="path-5" data-name="path" d="M0,0V1" transform="translate(251 260)" fill="none" stroke="#1f1f1f" stroke-linecap="round" stroke-linejoin="round" stroke-width="1.5"/>
    <path id="path-6" data-name="path" d="M0,0V8" transform="translate(248 260)" fill="none" stroke="#1f1f1f" stroke-linecap="round" stroke-linejoin="round" stroke-width="1.5"/>
    <path id="path-7" data-name="path" d="M0,0V4" transform="translate(251 264)" fill="none" stroke="#1f1f1f" stroke-linecap="round" stroke-linejoin="round" stroke-width="1.5"/>
    <path id="path-8" data-name="path" d="M0,0V8" transform="translate(254 260)" fill="none" stroke="#1f1f1f" stroke-linecap="round" stroke-linejoin="round" stroke-width="1.5"/>
  </g>
</svg>
