<svg xmlns="http://www.w3.org/2000/svg" width="16" height="16" viewBox="0 0 16 16">
  <g id="ico_16_txt_q" transform="translate(-418 -767)">
    <rect id="base" width="16" height="16" transform="translate(418 767)" fill="none"/>
    <path id="path" d="M10-.32,8.17-2.507a6.046,6.046,0,0,1-1.463.166A5.92,5.92,0,0,1,3.724-3.1,5.521,5.521,0,0,1,1.613-5.241a6.213,6.213,0,0,1-.773-3.1,6.167,6.167,0,0,1,.773-3.09,5.537,5.537,0,0,1,2.111-2.129,5.92,5.92,0,0,1,2.983-.762,5.92,5.92,0,0,1,2.983.762A5.537,5.537,0,0,1,11.8-11.429a6.167,6.167,0,0,1,.773,3.09,6.3,6.3,0,0,1-.665,2.908,5.5,5.5,0,0,1-1.845,2.1L12.84-.32ZM3.233-8.339a4.437,4.437,0,0,0,.44,2.03A3.177,3.177,0,0,0,4.9-4.976a3.48,3.48,0,0,0,1.812.464,3.48,3.48,0,0,0,1.812-.464A3.177,3.177,0,0,0,9.74-6.309a4.437,4.437,0,0,0,.44-2.03,4.437,4.437,0,0,0-.44-2.03A3.177,3.177,0,0,0,8.519-11.7a3.48,3.48,0,0,0-1.812-.464A3.48,3.48,0,0,0,4.9-11.7a3.177,3.177,0,0,0-1.222,1.334A4.437,4.437,0,0,0,3.233-8.339Z" transform="translate(417.16 782.32)" fill="#1f1f1f"/>
    <circle id="oval" cx="1.5" cy="1.5" r="1.5" transform="translate(431 779)" fill="#1f1f1f"/>
  </g>
</svg>
