<svg xmlns="http://www.w3.org/2000/svg" width="24" height="24" viewBox="0 0 24 24">
  <g id="ico_24_money01" transform="translate(-364 -252)">
    <path id="base" d="M0,0H24V24H0Z" transform="translate(364 252)" fill="none" opacity="0"/>
    <path id="path" d="M15,17H5c-3,0-5-1.5-5-5V5C0,1.5,2,0,5,0H15c3,0,5,1.5,5,5v7C20,15.5,18,17,15,17Z" transform="translate(366 255.5)" fill="none" stroke="#1f1f1f" stroke-linecap="round" stroke-linejoin="round" stroke-width="1.5"/>
    <path id="path-2" data-name="path" d="M6,3A3,3,0,1,1,3,0,3,3,0,0,1,6,3Z" transform="translate(373 261)" fill="none" stroke="#1f1f1f" stroke-linecap="round" stroke-linejoin="round" stroke-width="1.5"/>
    <path id="Vector" d="M0,5H1C4,5,5,4,5,1V0" transform="translate(366 256)" fill="none" stroke="#1f1f1f" stroke-linecap="round" stroke-linejoin="round" stroke-width="1.5"/>
    <path id="path-3" data-name="path" d="M5,5H4C1,5,0,4,0,1V0" transform="translate(381 256)" fill="none" stroke="#1f1f1f" stroke-linecap="round" stroke-linejoin="round" stroke-width="1.5"/>
    <path id="path-4" data-name="path" d="M0,0H1C4,0,5,1,5,4V5" transform="translate(366 267)" fill="none" stroke="#1f1f1f" stroke-linecap="round" stroke-linejoin="round" stroke-width="1.5"/>
    <path id="path-5" data-name="path" d="M5,0H4C1,0,0,1,0,4V5" transform="translate(381 267)" fill="none" stroke="#1f1f1f" stroke-linecap="round" stroke-linejoin="round" stroke-width="1.5"/>
  </g>
</svg>
