<svg xmlns="http://www.w3.org/2000/svg" width="24" height="24" viewBox="0 0 24 24">
  <g id="ico_24_del" transform="translate(-300 -252)">
    <path id="base" d="M0,0H24V24H0Z" transform="translate(324 276) rotate(180)" fill="none" opacity="0"/>
    <path id="path" d="M18,.5A99.977,99.977,0,0,0,7.978,0,59.225,59.225,0,0,0,2.044.305L0,.5" transform="translate(303.1 258.918)" fill="none" stroke="#1f1f1f" stroke-linecap="round" stroke-linejoin="round" stroke-width="1.5"/>
    <path id="path-2" data-name="path" d="M0,2.975.214,1.663C.366.717.488,0,2.181,0H4.805C6.5,0,6.62.747,6.773,1.663l.214,1.3" transform="translate(308.607 255.44)" fill="none" stroke="#1f1f1f" stroke-linecap="round" stroke-linejoin="round" stroke-width="1.5"/>
    <path id="path-3" data-name="path" d="M13.714,0l-.656,10.068c-.107,1.571-.2,2.792-2.99,2.792H3.646c-2.792,0-2.883-1.22-2.99-2.792L0,0" transform="translate(305.236 259.544)" fill="none" stroke="#1f1f1f" stroke-linecap="round" stroke-linejoin="round" stroke-width="1.5"/>
    <path id="path-4" data-name="path" d="M0,0H3.33" transform="translate(310.33 267.5)" fill="none" stroke="#1f1f1f" stroke-linecap="round" stroke-linejoin="round" stroke-width="1.5"/>
    <path id="path-5" data-name="path" d="M0,0H5" transform="translate(309.5 263.5)" fill="none" stroke="#1f1f1f" stroke-linecap="round" stroke-linejoin="round" stroke-width="1.5"/>
  </g>
</svg>
